<svg aria-hidden="true" style="position: absolute; width: 0; height: 0; overflow: hidden;" version="1.1" xmlns="http://www.w3.org/2000/svg" xmlns:xlink="http://www.w3.org/1999/xlink">
<defs>
<symbol id="icon-Bell" viewBox="0 0 32 32">
<path fill="#007aff" style="fill: var(--color1, #007aff)" d="M28.141 20.64c-0.592-0.507-0.933-1.247-0.933-2.027v-6.426c0-5.266-4.773-9.519-10.666-9.519s-10.666 4.253-10.666 9.519v6.426c0 0.779-0.341 1.52-0.933 2.027-2.013 1.8-0.587 4.866 2.267 4.866h5.066c0.646 1.8 2.353 3.001 4.266 3.001s3.62-1.201 4.267-3.001h5.066c2.853 0 4.28-3.067 2.267-4.866zM16.542 26.506c-0.794-0.003-1.541-0.372-2.027-1h4c-0.47 0.618-1.197 0.987-1.973 1zM25.888 23.506c0.485 0.044 0.946-0.216 1.16-0.653 0.104-0.263 0.009-0.564-0.227-0.72-1.005-0.896-1.585-2.174-1.6-3.52v-6.426c0-4.146-3.893-7.52-8.666-7.52s-8.666 3.373-8.666 7.52v6.426c-0.015 1.346-0.595 2.624-1.6 3.52-0.241 0.152-0.341 0.453-0.24 0.72 0.214 0.437 0.675 0.697 1.16 0.653h18.679z"></path>
</symbol>
<symbol id="icon-Bookmark" viewBox="0 0 32 32">
<path fill="#007aff" style="fill: var(--color1, #007aff)" d="M11.167 4.006h9.664c1.135-0.058 2.248 0.322 3.093 1.058s1.351 1.764 1.408 2.86v18.737c0.002 0.375-0.161 0.734-0.447 0.987s-0.67 0.379-1.058 0.345c-0.339 0-0.669-0.108-0.939-0.307l-5.978-4.384c-0.565-0.409-1.341-0.409-1.905 0l-5.923 4.384c-0.262 0.193-0.581 0.301-0.911 0.307-0.387 0.034-0.771-0.092-1.058-0.345s-0.449-0.612-0.447-0.987v-18.737c0.057-1.096 0.564-2.125 1.408-2.86s1.957-1.116 3.093-1.058zM18.195 21.717l5.039 3.731-0.028-17.524c-0.131-1.162-1.195-2.012-2.402-1.919h-9.664c-1.207-0.093-2.272 0.757-2.402 1.919v17.524l5.039-3.731c1.305-0.96 3.113-0.96 4.418 0z"></path>
</symbol>
<symbol id="icon-logo" viewBox="0 0 39 32">
<path fill="#4378ff" style="fill: var(--color2, #4378ff)" opacity="0.1" d="M35.333 16c0 8.837-7.191 16-16.061 16s-16.061-7.163-16.061-16c0-8.837 7.191-16 16.061-16s16.061 7.163 16.061 16z"></path>
<path fill="#007aff" style="fill: var(--color1, #007aff)" d="M30.261 22.827c-0.365 0.071-7.436 1.347-10.989-3.289-2.824 3.654-7.831 3.769-10.934 3.303-9.026-2.502-8.331-12.015-8.324-12.107 0.010-0.141 0.062-0.275 0.148-0.385s0.203-0.191 0.334-0.231c0.131-0.041 0.271-0.041 0.402-0.001s0.248 0.12 0.335 0.228c0.021 0.028 2.265 2.828 5.164 2.935 1.612 0.071 3.184-0.764 4.599-2.332 1.713-1.402 5.706-2.47 8.276 0.879 0.875-1.148 2.13-1.925 3.525-2.183 1.686-0.193 3.382 0.273 4.751 1.304 1.415 1.568 2.988 2.403 4.599 2.332 2.899-0.106 5.143-2.906 5.164-2.935 0.088-0.107 0.205-0.185 0.335-0.224s0.269-0.038 0.399 0.004 0.245 0.122 0.331 0.23c0.086 0.108 0.139 0.241 0.153 0.38 0.007 0.092 0.702 9.605-8.269 12.093z"></path>
</symbol>
<symbol id="icon-shopping-basket" viewBox="0 0 32 32">
<path fill="#007aff" style="fill: var(--color1, #007aff)" d="M4.628 5.667h1.333l0.067 0.013c1.848 0.036 3.463 1.258 4 3.027l0.267 0.92h13.906c1.228 0.006 2.394 0.54 3.2 1.467 0.804 0.932 1.159 2.17 0.973 3.386l-0.8 5.52c-0.266 2.116-2.054 3.71-4.186 3.733h-7.84c-1.873-0.007-3.522-1.235-4.066-3.027l-3.373-11.373c-0.258-0.976-1.137-1.658-2.147-1.667h-1.333c-0.552 0-1-0.448-1-1s0.448-1 1-1zM13.4 20.067c0.283 0.949 1.156 1.6 2.147 1.6h7.84c1.103-0.012 2.038-0.817 2.213-1.907l0.8-5.533c0.109-0.644-0.069-1.304-0.486-1.806s-1.034-0.797-1.687-0.807h-13.333l2.507 8.453z"></path>
<path fill="#007aff" style="fill: var(--color1, #007aff)" d="M15.24 25.333c-0.736 0-1.333 0.597-1.333 1.333s0.597 1.333 1.333 1.333c0.736 0 1.333-0.597 1.333-1.333s-0.597-1.333-1.333-1.333z"></path>
<path fill="#007aff" style="fill: var(--color1, #007aff)" d="M23.24 25.333c-0.736 0-1.333 0.597-1.333 1.333s0.597 1.333 1.333 1.333c0.736 0 1.333-0.597 1.333-1.333s-0.597-1.333-1.333-1.333z"></path>
</symbol>
<symbol id="icon-Wallet" viewBox="0 0 31 32">
<path d="M28.16 20.887c0 3.213-2.605 5.818-5.818 5.818h-13.964c-3.213 0-5.818-2.605-5.818-5.818v-9.309c0-3.213 2.605-5.818 5.818-5.818h13.964c3.213 0 5.818 2.605 5.818 5.818v9.309zM28.16 17.641v-2.816h-5.818c-0.778 0-1.408 0.63-1.408 1.408s0.63 1.408 1.408 1.408h5.818z"></path>
</symbol>
<symbol id="icon-Pluse" viewBox="0 0 32 32">
<path fill="#fff" style="fill: var(--color1, #fff)" d="M15.253 2.667h1.493c6.951 0 12.587 5.635 12.587 12.587v1.493c0 6.951-5.635 12.587-12.587 12.587h-1.493c-6.951 0-12.587-5.635-12.587-12.587v-1.493c0-6.951 5.635-12.587 12.587-12.587zM17 17h4.333c0.552 0 1-0.448 1-1s-0.448-1-1-1h-4.333v-4.333c0-0.552-0.448-1-1-1s-1 0.448-1 1v4.333h-4.333c-0.552 0-1 0.448-1 1s0.448 1 1 1h4.333v4.333c0 0.552 0.448 1 1 1s1-0.448 1-1v-4.333z"></path>
</symbol>
<symbol id="icon-search" viewBox="0 0 32 32">
<path fill="#a2acb0" style="fill: var(--color1, #a2acb0)" d="M5.416 10.226c1.902-4.566 6.357-7.546 11.304-7.559 5.331-0.028 10.071 3.387 11.733 8.452s-0.135 10.624-4.446 13.76c-4.312 3.135-10.154 3.131-14.46-0.012l-3.84 3.84c-0.39 0.39-1.023 0.39-1.413 0s-0.39-1.023 0-1.413l3.72-3.72c-3.475-3.52-4.498-8.782-2.597-13.348zM7.199 18.893c1.597 3.848 5.355 6.353 9.521 6.348v-0.053c5.654-0.007 10.243-4.573 10.28-10.227 0.005-4.166-2.501-7.924-6.348-9.521s-8.278-0.717-11.224 2.229c-2.946 2.946-3.825 7.376-2.229 11.224z"></path>
</symbol>
</defs>
</svg>
