<svg aria-hidden="true" style="position: absolute; width: 0; height: 0; overflow: hidden;" version="1.1" xmlns="http://www.w3.org/2000/svg" xmlns:xlink="http://www.w3.org/1999/xlink">
<defs>
<symbol id="icon-user-result" viewBox="0 0 32 32">
<path fill="#008aff" style="fill: var(--color1, #008aff)" d="M16 13.333c-1.061 0-2.078-0.421-2.828-1.171s-1.172-1.768-1.172-2.828 0.421-2.078 1.172-2.828c0.75-0.75 1.768-1.172 2.828-1.172s2.078 0.421 2.828 1.172c0.75 0.75 1.172 1.768 1.172 2.828s-0.421 2.078-1.172 2.828c-0.75 0.75-1.767 1.171-2.828 1.171zM11.957 20.332c0.274-0.857 0.813-1.604 1.54-2.134s1.603-0.816 2.502-0.816c0.9 0 1.776 0.286 2.502 0.816s1.266 1.278 1.54 2.134c0.088 0.343 0.309 0.636 0.614 0.816s0.669 0.231 1.011 0.143c0.343-0.088 0.636-0.309 0.816-0.614s0.231-0.669 0.143-1.011c-1.748-6.596-11.507-6.593-13.249 0-0.048 0.171-0.062 0.35-0.040 0.526s0.079 0.346 0.167 0.5c0.088 0.154 0.207 0.289 0.348 0.396s0.303 0.186 0.474 0.23 0.351 0.054 0.527 0.028c0.176-0.026 0.344-0.086 0.496-0.178s0.284-0.213 0.389-0.357c0.104-0.144 0.179-0.307 0.22-0.479zM16.012 31.553c-0.658 0-1.293-0.241-1.784-0.679l-4.997-4.208h-3.897c-1.414 0-2.771-0.562-3.771-1.562s-1.562-2.357-1.562-3.771v-16c0-1.414 0.562-2.771 1.562-3.771s2.357-1.562 3.771-1.562h21.333c1.415 0 2.771 0.562 3.771 1.562s1.562 2.357 1.562 3.771v16c0 1.415-0.562 2.771-1.562 3.771s-2.357 1.562-3.771 1.562h-3.804l-5.129 4.24c-0.475 0.419-1.088 0.649-1.721 0.647zM5.333 2.667c-0.707 0-1.386 0.281-1.886 0.781s-0.781 1.178-0.781 1.886v16c0 0.707 0.281 1.386 0.781 1.886s1.178 0.781 1.886 0.781h4.385c0.314 0 0.618 0.111 0.859 0.313l5.395 4.547 5.563-4.555c0.239-0.197 0.539-0.305 0.849-0.305h4.283c0.707 0 1.386-0.281 1.886-0.781s0.781-1.178 0.781-1.886v-16c0-0.707-0.281-1.386-0.781-1.886s-1.178-0.781-1.886-0.781h-21.333z"></path>
</symbol>
<symbol id="icon-star-result" viewBox="0 0 32 32">
<path fill="#008aff" style="fill: var(--color1, #008aff)" d="M31.782 11.726c-0.273-0.868-0.818-1.625-1.554-2.16s-1.625-0.818-2.535-0.808h-5.825l-1.769-5.515c-0.278-0.868-0.825-1.625-1.561-2.163s-1.624-0.827-2.536-0.827c-0.912 0-1.8 0.289-2.536 0.827s-1.283 1.295-1.561 2.163l-1.769 5.515h-5.825c-0.907 0.001-1.79 0.289-2.524 0.823s-1.28 1.285-1.561 2.147-0.282 1.792-0.004 2.655c0.279 0.863 0.823 1.616 1.555 2.151l4.741 3.467-1.803 5.583c-0.291 0.866-0.295 1.803-0.011 2.671s0.842 1.621 1.589 2.146c0.734 0.542 1.625 0.833 2.538 0.828s1.8-0.304 2.529-0.854l4.641-3.416 4.643 3.412c0.733 0.539 1.618 0.832 2.529 0.837s1.798-0.28 2.537-0.812c0.738-0.532 1.289-1.285 1.573-2.149s0.286-1.797 0.006-2.663l-1.803-5.583 4.747-3.467c0.741-0.529 1.291-1.282 1.57-2.148s0.272-1.799-0.020-2.66zM28.658 14.38l-5.525 4.039c-0.227 0.166-0.396 0.398-0.483 0.666s-0.087 0.555-0 0.822l2.1 6.493c0.106 0.329 0.105 0.684-0.003 1.013s-0.317 0.615-0.598 0.817c-0.281 0.202-0.619 0.31-0.965 0.309s-0.683-0.113-0.961-0.318l-5.433-4c-0.229-0.168-0.505-0.259-0.789-0.259s-0.56 0.091-0.789 0.259l-5.433 4c-0.279 0.208-0.616 0.322-0.964 0.325s-0.687-0.105-0.969-0.307-0.493-0.49-0.601-0.821c-0.108-0.33-0.108-0.687 0-1.017l2.107-6.493c0.087-0.267 0.086-0.555-0-0.822s-0.256-0.5-0.482-0.666l-5.525-4.039c-0.278-0.204-0.485-0.49-0.591-0.819s-0.105-0.681 0.002-1.009c0.107-0.328 0.315-0.613 0.594-0.816s0.615-0.312 0.96-0.312h6.8c0.282 0 0.557-0.090 0.785-0.256s0.398-0.401 0.484-0.669l2.067-6.441c0.106-0.33 0.314-0.617 0.594-0.821s0.617-0.314 0.963-0.314 0.684 0.11 0.963 0.314c0.28 0.204 0.488 0.491 0.594 0.821l2.067 6.441c0.086 0.269 0.256 0.503 0.484 0.669s0.503 0.256 0.785 0.256h6.8c0.345 0 0.681 0.11 0.96 0.312s0.487 0.488 0.594 0.816c0.107 0.328 0.108 0.681 0.002 1.009s-0.313 0.615-0.591 0.819h-0.003z"></path>
</symbol>
<symbol id="icon-star-hov-result" viewBox="0 0 32 32">
<path fill="#fafafa" style="fill: var(--color2, #fafafa)" d="M1.77 16.534l4.747 3.467-1.803 5.583c-0.291 0.866-0.295 1.803-0.011 2.671s0.842 1.621 1.589 2.146c0.734 0.542 1.625 0.833 2.538 0.828s1.8-0.304 2.529-0.854l4.641-3.416 4.643 3.412c0.733 0.539 1.618 0.832 2.529 0.837s1.798-0.28 2.537-0.812c0.738-0.532 1.289-1.285 1.573-2.149s0.286-1.797 0.006-2.663l-1.803-5.583 4.747-3.467c0.732-0.535 1.276-1.288 1.555-2.151s0.277-1.792-0.004-2.655-0.827-1.614-1.561-2.147c-0.734-0.533-1.617-0.821-2.524-0.823h-5.831l-1.769-5.515c-0.278-0.868-0.825-1.625-1.561-2.163s-1.624-0.827-2.536-0.827c-0.912 0-1.8 0.289-2.536 0.827s-1.283 1.295-1.561 2.163l-1.769 5.515h-5.825c-0.907 0.001-1.79 0.289-2.524 0.823s-1.28 1.285-1.561 2.147-0.282 1.792-0.004 2.655c0.279 0.863 0.823 1.616 1.555 2.151h-0.005z"></path>
</symbol>
<symbol id="icon-user-hov-result" viewBox="0 0 32 32">
<path fill="#fafafa" style="fill: var(--color2, #fafafa)" d="M15.999 10.595c1.122 0 2.031-0.909 2.031-2.031s-0.909-2.031-2.031-2.031c-1.121 0-2.031 0.909-2.031 2.031s0.909 2.031 2.031 2.031z"></path>
<path fill="#fafafa" style="fill: var(--color2, #fafafa)" d="M26.667 0.001h-21.333c-2.965 0.023-5.351 2.443-5.333 5.408v16.227c-0.018 2.965 2.368 5.385 5.333 5.409h3.897l4.997 4.267c0.99 0.905 2.502 0.918 3.508 0.031l5.127-4.299h3.804c2.965-0.024 5.351-2.444 5.333-5.409v-16.225c0.018-2.965-2.368-5.385-5.333-5.408zM16 4.057c6.153 0.163 6.152 9.303 0 9.467-6.153-0.164-6.152-9.3 0-9.467zM21.665 22.945c-0.713 0.182-1.439-0.249-1.622-0.962-0.001-0.003-0.002-0.006-0.002-0.010-0.682-2.232-3.045-3.489-5.278-2.806-1.344 0.411-2.396 1.462-2.806 2.806-0.186 0.713-0.915 1.14-1.628 0.953s-1.14-0.915-0.953-1.628c1.031-3.659 4.833-5.789 8.491-4.758 2.306 0.65 4.108 2.452 4.758 4.758 0.186 0.719-0.243 1.454-0.96 1.647z"></path>
</symbol>
<symbol id="icon-headset-result" viewBox="0 0 32 32">
<path fill="#008aff" style="fill: var(--color1, #008aff)" d="M28 16.565v-1.899c0-3.183-1.264-6.235-3.515-8.485s-5.303-3.515-8.485-3.515c-3.183 0-6.235 1.264-8.485 3.515s-3.515 5.303-3.515 8.485v1.899c-1.398 0.616-2.543 1.693-3.242 3.052s-0.91 2.916-0.597 4.412c0.312 1.496 1.129 2.839 2.313 3.804s2.664 1.495 4.192 1.499c0.707 0 1.386-0.281 1.886-0.781s0.781-1.178 0.781-1.886v-8c0-0.707-0.281-1.386-0.781-1.886s-1.178-0.781-1.886-0.781v-1.333c0-2.475 0.983-4.849 2.734-6.6s4.124-2.734 6.6-2.734c2.475 0 4.849 0.983 6.6 2.734s2.734 4.124 2.734 6.6v1.333c-0.707 0-1.386 0.281-1.886 0.781s-0.781 1.178-0.781 1.886v8h-4c-0.354 0-0.693 0.14-0.943 0.39s-0.391 0.589-0.391 0.943 0.14 0.693 0.391 0.943c0.25 0.25 0.589 0.39 0.943 0.39h6.667c1.528-0.005 3.008-0.534 4.192-1.499s2.001-2.308 2.314-3.804c0.312-1.496 0.102-3.053-0.598-4.412s-1.843-2.436-3.242-3.052zM6.666 26.666c-1.061 0-2.078-0.421-2.828-1.172s-1.172-1.768-1.172-2.828c0-1.061 0.421-2.078 1.172-2.829s1.768-1.172 2.828-1.172v8zM25.333 26.666v-8c1.061 0 2.078 0.421 2.828 1.171s1.172 1.768 1.172 2.828c0 1.061-0.421 2.078-1.172 2.828s-1.768 1.172-2.828 1.172z"></path>
</symbol>
<symbol id="icon-headset-hov-result" viewBox="0 0 32 32">
<path fill="#fafafa" style="fill: var(--color2, #fafafa)" d="M6.666 29.333c0.707 0 1.386-0.281 1.886-0.781s0.781-1.178 0.781-1.886v-8c0-0.707-0.281-1.386-0.781-1.886s-1.178-0.781-1.886-0.781v-1.333c0-2.475 0.983-4.849 2.734-6.6s4.124-2.734 6.6-2.734c2.475 0 4.849 0.983 6.6 2.734s2.734 4.124 2.734 6.6v1.333c-0.707 0-1.386 0.281-1.886 0.781s-0.781 1.178-0.781 1.886v8h-4c-0.354 0-0.693 0.14-0.943 0.39s-0.391 0.589-0.391 0.943 0.14 0.693 0.391 0.943c0.25 0.25 0.589 0.39 0.943 0.39h6.667c1.528-0.005 3.008-0.534 4.192-1.499s2.001-2.308 2.314-3.804c0.312-1.496 0.102-3.053-0.598-4.412s-1.843-2.436-3.242-3.052v-1.899c0-3.183-1.264-6.235-3.515-8.485s-5.303-3.515-8.485-3.515c-3.183 0-6.235 1.264-8.485 3.515s-3.515 5.303-3.515 8.485v1.899c-1.398 0.616-2.543 1.693-3.242 3.052s-0.91 2.916-0.597 4.412c0.312 1.496 1.129 2.839 2.313 3.804s2.664 1.495 4.192 1.499z"></path>
</symbol>
<symbol id="icon-document-result" viewBox="0 0 32 32">
<path fill="#008aff" style="fill: var(--color1, #008aff)" d="M22.668 18.667c0 0.354-0.14 0.693-0.391 0.943s-0.589 0.391-0.943 0.391h-10.667c-0.354 0-0.693-0.14-0.943-0.391s-0.391-0.589-0.391-0.943c0-0.354 0.14-0.693 0.391-0.943s0.589-0.39 0.943-0.39h10.667c0.354 0 0.693 0.14 0.943 0.39s0.391 0.589 0.391 0.943zM17.335 22.667h-6.667c-0.354 0-0.693 0.14-0.943 0.391s-0.391 0.589-0.391 0.943c0 0.354 0.14 0.693 0.391 0.943s0.589 0.39 0.943 0.39h6.667c0.354 0 0.693-0.14 0.943-0.39s0.391-0.589 0.391-0.943c0-0.354-0.14-0.693-0.391-0.943s-0.589-0.391-0.943-0.391zM29.335 13.98v11.353c-0.002 1.767-0.705 3.462-1.955 4.712s-2.944 1.953-4.712 1.955h-13.333c-1.767-0.002-3.462-0.705-4.712-1.955s-1.953-2.944-1.955-4.712v-18.667c0.002-1.767 0.705-3.462 1.955-4.712s2.944-1.953 4.712-1.955h6.020c1.226-0.003 2.441 0.237 3.574 0.706s2.161 1.158 3.026 2.027l4.645 4.648c0.87 0.864 1.559 1.893 2.029 3.025s0.709 2.347 0.706 3.573zM20.069 4.619c-0.42-0.406-0.891-0.756-1.401-1.040v5.755c0 0.354 0.14 0.693 0.39 0.943s0.589 0.39 0.943 0.39h5.755c-0.284-0.51-0.634-0.981-1.041-1.4l-4.645-4.648zM26.668 13.98c0-0.22-0.043-0.431-0.063-0.647h-6.604c-1.061 0-2.078-0.421-2.828-1.172s-1.172-1.768-1.172-2.828v-6.604c-0.216-0.020-0.428-0.063-0.647-0.063h-6.020c-1.061 0-2.078 0.421-2.828 1.172s-1.172 1.768-1.172 2.828v18.667c0 1.061 0.421 2.078 1.172 2.828s1.768 1.172 2.828 1.172h13.333c1.061 0 2.078-0.421 2.828-1.172s1.172-1.767 1.172-2.828v-11.353z"></path>
</symbol>
<symbol id="icon-document-hov-result" viewBox="0 0 32 32">
<path fill="#fafafa" style="fill: var(--color2, #fafafa)" d="M18.668 9.333v-8.72c1.233 0.466 2.354 1.188 3.287 2.12l4.645 4.648c0.933 0.932 1.656 2.052 2.121 3.285h-8.72c-0.354 0-0.693-0.14-0.943-0.391s-0.39-0.589-0.39-0.943zM29.335 13.98v11.353c-0.002 1.767-0.705 3.462-1.955 4.712s-2.944 1.953-4.712 1.955h-13.333c-1.767-0.002-3.462-0.705-4.712-1.955s-1.953-2.944-1.955-4.712v-18.667c0.002-1.767 0.705-3.462 1.955-4.712s2.944-1.953 4.712-1.955h6.020c0.217 0 0.432 0.017 0.647 0.032v9.301c0 1.061 0.421 2.078 1.172 2.828s1.767 1.171 2.828 1.171h9.301c0.015 0.215 0.032 0.429 0.032 0.647zM18.668 25.333c0-0.354-0.14-0.693-0.391-0.943s-0.589-0.39-0.943-0.39h-6.667c-0.354 0-0.693 0.14-0.943 0.39s-0.391 0.589-0.391 0.943c0 0.354 0.14 0.693 0.391 0.943s0.589 0.391 0.943 0.391h6.667c0.354 0 0.693-0.14 0.943-0.391s0.391-0.589 0.391-0.943zM22.668 20c0-0.354-0.14-0.693-0.391-0.943s-0.589-0.39-0.943-0.39h-10.667c-0.354 0-0.693 0.14-0.943 0.39s-0.391 0.589-0.391 0.943 0.14 0.693 0.391 0.943c0.25 0.25 0.589 0.39 0.943 0.39h10.667c0.354 0 0.693-0.14 0.943-0.39s0.391-0.589 0.391-0.943z"></path>
</symbol>
<symbol id="icon-computer-result" viewBox="0 0 32 32">
<path fill="#008aff" style="fill: var(--color1, #008aff)" d="M25.333 1.333h-18.667c-1.767 0.002-3.462 0.705-4.712 1.955s-1.953 2.944-1.955 4.712v10.667c0.002 1.767 0.705 3.462 1.955 4.712s2.944 1.953 4.712 1.955h8v2.667h-5.333c-0.354 0-0.693 0.14-0.943 0.39s-0.391 0.589-0.391 0.943c0 0.354 0.14 0.693 0.391 0.943s0.589 0.391 0.943 0.391h13.333c0.354 0 0.693-0.14 0.943-0.391s0.39-0.589 0.39-0.943c0-0.354-0.14-0.693-0.39-0.943s-0.589-0.39-0.943-0.39h-5.333v-2.667h8c1.768-0.002 3.462-0.705 4.712-1.955s1.953-2.944 1.955-4.712v-10.667c-0.002-1.767-0.705-3.462-1.955-4.712s-2.944-1.953-4.712-1.955zM6.667 4h18.667c1.061 0 2.078 0.421 2.828 1.172s1.172 1.768 1.172 2.828v9.333h-26.667v-9.333c0-1.061 0.421-2.078 1.172-2.828s1.768-1.172 2.828-1.172zM25.333 22.666h-18.667c-0.824-0.003-1.627-0.262-2.3-0.739s-1.18-1.151-1.455-1.928h26.176c-0.275 0.777-0.783 1.45-1.455 1.928s-1.475 0.735-2.3 0.739z"></path>
</symbol>
<symbol id="icon-computer-hov-result" viewBox="0 0 32 32">
<path fill="#fafafa" style="fill: var(--color2, #fafafa)" d="M24.667 0h-17.333c-1.944 0.002-3.808 0.775-5.183 2.15s-2.148 3.239-2.15 5.183v10.667c0.002 1.944 0.775 3.808 2.15 5.183s3.239 2.148 5.183 2.15h6.667v2.667h-3.333c-0.53 0-1.039 0.211-1.414 0.586s-0.586 0.884-0.586 1.414c0 0.53 0.211 1.039 0.586 1.414s0.884 0.586 1.414 0.586h10.667c0.53 0 1.039-0.211 1.414-0.586s0.586-0.884 0.586-1.414-0.211-1.039-0.586-1.414c-0.375-0.375-0.884-0.586-1.414-0.586h-3.333v-2.667h6.667c1.944-0.002 3.808-0.775 5.183-2.15s2.148-3.239 2.15-5.183v-10.667c-0.002-1.944-0.775-3.808-2.15-5.183s-3.239-2.148-5.183-2.15v0zM7.333 4h17.333c0.884 0 1.732 0.351 2.357 0.976s0.976 1.473 0.976 2.357v10h-24v-10c0-0.884 0.351-1.732 0.976-2.357s1.473-0.976 2.357-0.976z"></path>
</symbol>
<symbol id="icon-database-result" viewBox="0 0 32 32">
<path fill="#008aff" style="fill: var(--color1, #008aff)" d="M32.001 15.333c-0.003-0.899-0.209-1.786-0.603-2.594s-0.965-1.517-1.671-2.073c0.977-0.77 1.689-1.826 2.037-3.020s0.315-2.467-0.095-3.642c-0.41-1.174-1.177-2.191-2.193-2.909s-2.231-1.101-3.474-1.095h-20c-1.244-0.006-2.459 0.377-3.474 1.095s-1.782 1.735-2.193 2.909c-0.41 1.174-0.444 2.448-0.095 3.642s1.060 2.25 2.037 3.020c-0.709 0.554-1.282 1.262-1.676 2.071s-0.599 1.696-0.599 2.596c0 0.899 0.205 1.787 0.599 2.596s0.967 1.517 1.676 2.071c-0.977 0.77-1.689 1.826-2.037 3.020s-0.315 2.467 0.095 3.642 1.177 2.192 2.193 2.909c1.016 0.718 2.231 1.101 3.474 1.095h20c1.244 0.006 2.459-0.377 3.474-1.095s1.782-1.735 2.193-2.909c0.41-1.174 0.443-2.448 0.095-3.642s-1.060-2.25-2.037-3.020c0.706-0.556 1.277-1.265 1.671-2.073s0.6-1.695 0.603-2.594zM2.668 6c0-0.884 0.351-1.732 0.976-2.357s1.473-0.976 2.357-0.976h0.667v1.333c0 0.354 0.14 0.693 0.391 0.943s0.589 0.391 0.943 0.391c0.354 0 0.693-0.14 0.943-0.391s0.391-0.589 0.391-0.943v-1.333h2.667v1.333c0 0.354 0.14 0.693 0.39 0.943s0.589 0.391 0.943 0.391 0.693-0.14 0.943-0.391c0.25-0.25 0.391-0.589 0.391-0.943v-1.333h11.333c0.884 0 1.732 0.351 2.357 0.976s0.976 1.473 0.976 2.357c0 0.884-0.351 1.732-0.976 2.357s-1.473 0.976-2.357 0.976h-20c-0.884 0-1.732-0.351-2.357-0.976s-0.976-1.473-0.976-2.357zM29.334 24.667c0 0.884-0.351 1.732-0.976 2.357s-1.473 0.976-2.357 0.976h-20c-0.884 0-1.732-0.351-2.357-0.976s-0.976-1.473-0.976-2.357c0-0.884 0.351-1.732 0.976-2.357s1.473-0.976 2.357-0.976h0.667v1.333c0 0.354 0.14 0.693 0.391 0.943s0.589 0.391 0.943 0.391 0.693-0.14 0.943-0.391c0.25-0.25 0.391-0.589 0.391-0.943v-1.333h2.667v1.333c0 0.354 0.14 0.693 0.39 0.943s0.589 0.391 0.943 0.391 0.693-0.14 0.943-0.391c0.25-0.25 0.391-0.589 0.391-0.943v-1.333h11.333c0.884 0 1.732 0.351 2.357 0.976s0.976 1.473 0.976 2.357zM6.001 18.667c-0.884 0-1.732-0.351-2.357-0.976s-0.976-1.473-0.976-2.357c0-0.884 0.351-1.732 0.976-2.357s1.473-0.976 2.357-0.976h0.667v1.333c0 0.354 0.14 0.693 0.391 0.943s0.589 0.39 0.943 0.39c0.354 0 0.693-0.14 0.943-0.39s0.391-0.589 0.391-0.943v-1.333h2.667v1.333c0 0.354 0.14 0.693 0.39 0.943s0.589 0.39 0.943 0.39 0.693-0.14 0.943-0.39c0.25-0.25 0.391-0.589 0.391-0.943v-1.333h11.333c0.884 0 1.732 0.351 2.357 0.976s0.976 1.473 0.976 2.357c0 0.884-0.351 1.732-0.976 2.357s-1.473 0.976-2.357 0.976h-20z"></path>
</symbol>
<symbol id="icon-database-hov-result" viewBox="0 0 32 32">
<path fill="#fafafa" style="fill: var(--color2, #fafafa)" d="M28 22.667h-14.667v2.667c0 0.354-0.14 0.693-0.39 0.943s-0.589 0.391-0.943 0.391-0.693-0.14-0.943-0.391c-0.25-0.25-0.39-0.589-0.39-0.943v-2.667h-2.667v2.667c0 0.354-0.14 0.693-0.391 0.943s-0.589 0.391-0.943 0.391-0.693-0.14-0.943-0.391c-0.25-0.25-0.391-0.589-0.391-0.943v-2.667h-1.333c-1.061 0-2.078 0.421-2.828 1.171s-1.172 1.768-1.172 2.828c0 1.061 0.421 2.078 1.172 2.828s1.768 1.172 2.828 1.172h24c1.061 0 2.078-0.422 2.828-1.172s1.172-1.768 1.172-2.828c0-1.061-0.421-2.078-1.172-2.828s-1.768-1.172-2.828-1.172z"></path>
<path fill="#fafafa" style="fill: var(--color2, #fafafa)" d="M28 12h-14.667v2.667c0 0.354-0.14 0.693-0.39 0.943s-0.589 0.39-0.943 0.39-0.693-0.14-0.943-0.39c-0.25-0.25-0.39-0.589-0.39-0.943v-2.667h-2.667v2.667c0 0.354-0.14 0.693-0.391 0.943s-0.589 0.39-0.943 0.39-0.693-0.14-0.943-0.39c-0.25-0.25-0.391-0.589-0.391-0.943v-2.667h-1.333c-1.061 0-2.078 0.421-2.828 1.172s-1.172 1.768-1.172 2.828 0.421 2.078 1.172 2.828c0.75 0.75 1.768 1.172 2.828 1.172h24c1.061 0 2.078-0.421 2.828-1.172s1.172-1.767 1.172-2.828-0.421-2.078-1.172-2.828c-0.75-0.75-1.768-1.172-2.828-1.172z"></path>
<path fill="#fafafa" style="fill: var(--color2, #fafafa)" d="M28 1.333h-14.667v2.667c0 0.354-0.14 0.693-0.39 0.943s-0.589 0.391-0.943 0.391-0.693-0.14-0.943-0.391c-0.25-0.25-0.39-0.589-0.39-0.943v-2.667h-2.667v2.667c0 0.354-0.14 0.693-0.391 0.943s-0.589 0.391-0.943 0.391c-0.354 0-0.693-0.14-0.943-0.391s-0.391-0.589-0.391-0.943v-2.667h-1.333c-1.061 0-2.078 0.421-2.828 1.172s-1.172 1.768-1.172 2.828c0 1.061 0.421 2.078 1.172 2.828s1.768 1.172 2.828 1.172h24c1.061 0 2.078-0.421 2.828-1.172s1.172-1.768 1.172-2.828-0.421-2.078-1.172-2.828c-0.75-0.75-1.768-1.172-2.828-1.172z"></path>
</symbol>
<symbol id="icon-bank-opportunities" viewBox="0 0 32 32">
<path fill="#008aff" style="fill: var(--color1, #008aff)" d="M10.347 16.113c4.447 0 8.053-3.607 8.053-8.053s-3.607-8.060-8.053-8.060c-4.447 0-8.053 3.607-8.053 8.053s3.607 8.060 8.053 8.060zM7.534 11.24c0.073-0.267 0.147-0.527 0.227-0.793 0.093-0.307 0.18-0.34 0.46-0.193 0.48 0.247 0.987 0.387 1.52 0.453 0.34 0.040 0.68 0.007 0.993-0.133 0.593-0.26 0.687-0.947 0.187-1.36-0.173-0.14-0.367-0.247-0.567-0.333-0.52-0.227-1.060-0.4-1.553-0.693-0.793-0.473-1.3-1.133-1.24-2.1 0.067-1.093 0.687-1.78 1.687-2.14 0.413-0.153 0.413-0.147 0.42-0.58 0-0.147 0-0.293 0-0.44 0.007-0.327 0.067-0.38 0.387-0.393 0.1 0 0.2 0 0.3 0 0.693 0 0.693 0 0.693 0.693 0 0.487 0 0.493 0.487 0.567 0.373 0.060 0.727 0.167 1.073 0.32 0.193 0.087 0.26 0.22 0.207 0.42-0.087 0.3-0.167 0.6-0.267 0.893-0.093 0.28-0.18 0.32-0.447 0.193-0.54-0.26-1.107-0.373-1.707-0.34-0.16 0.007-0.307 0.027-0.453 0.093-0.513 0.227-0.6 0.793-0.16 1.147 0.22 0.18 0.473 0.307 0.74 0.413 0.453 0.187 0.913 0.373 1.353 0.613 1.38 0.767 1.753 2.5 0.78 3.68-0.353 0.427-0.807 0.713-1.347 0.86-0.233 0.067-0.34 0.187-0.327 0.427s0 0.473 0 0.713c0 0.213-0.107 0.327-0.32 0.333-0.253 0.007-0.513 0.007-0.767 0-0.227-0.007-0.333-0.133-0.333-0.353 0-0.173 0-0.347-0.007-0.52-0.007-0.38-0.013-0.4-0.387-0.46-0.473-0.073-0.933-0.18-1.367-0.393-0.327-0.153-0.36-0.24-0.267-0.593z"></path>
<path fill="#008aff" style="fill: var(--color1, #008aff)" d="M28.415 16.787h-0.94c-0.62-1.9-1.833-3.587-3.453-4.893 0-0.060-0.013-0.127-0.027-0.187-0.34-1.193 0.080-2.28 0.567-3.060 0.34-0.547-0.1-1.247-0.74-1.167-1.433 0.18-2.42 0.707-3.1 1.3-0.467 0.407-0.8 0.953-0.947 1.56-1.027 4.253-4.86 7.42-9.427 7.42-2.22 0-4.26-0.747-5.893-2-0.567 1.227-0.873 2.567-0.873 3.973 0 0.76 0.093 1.5 0.267 2.213 0 0 0 0.013 0.007 0.033 0.18 0.74 0.453 1.453 0.8 2.127 0.46 0.993 1.127 2.153 2.047 3.093 1.327 1.367 1.553 3.060 1.587 3.793v0.313c0 0.013 0 0.027 0 0.040 0 0.007 0 0.007 0 0.007 0.027 0.36 0.327 0.647 0.693 0.647h4.213c0.38 0 0.693-0.307 0.693-0.693v-1.040c0.613 0.080 1.24 0.127 1.873 0.127 0.5 0 0.987-0.027 1.473-0.080v0.993c0 0.38 0.307 0.693 0.693 0.693h4.227c0.38 0 0.693-0.307 0.693-0.693v-1.040c0.007-0.347 0.127-1.727 1.433-2.907 0.047-0.040 0.093-0.080 0.14-0.12 0.013-0.013 0.027-0.020 0.040-0.033 1.453-1.293 2.527-2.907 3.080-4.707h0.887c0.707 0 1.28-0.573 1.28-1.28v-3.153c-0.013-0.707-0.587-1.28-1.293-1.28zM23.141 17.013c-0.58 0-1.047-0.467-1.047-1.047s0.467-1.047 1.047-1.047c0.58 0 1.047 0.467 1.047 1.047s-0.467 1.047-1.047 1.047z"></path>
</symbol>
<symbol id="icon-bar-chart-opportunities" viewBox="0 0 32 32">
<path fill="#008aff" style="fill: var(--color1, #008aff)" d="M7.137 23.016c0-0.486-0.393-0.879-0.879-0.879h-4.395c-0.486 0-0.879 0.393-0.879 0.879v7.090c0 0.486 0.393 0.879 0.879 0.879h4.395c0.486 0 0.879-0.393 0.879-0.879v-7.090z"></path>
<path fill="#008aff" style="fill: var(--color1, #008aff)" d="M14.227 16.863h-4.395c-0.486 0-0.879 0.393-0.879 0.879v12.363c0 0.486 0.393 0.879 0.879 0.879h4.395c0.486 0 0.879-0.393 0.879-0.879v-12.363c0-0.486-0.393-0.879-0.879-0.879z"></path>
<path fill="#008aff" style="fill: var(--color1, #008aff)" d="M22.136 15.105h-4.394c-0.486 0-0.879 0.393-0.879 0.879v14.121c0 0.486 0.393 0.879 0.879 0.879h4.394c0.486 0 0.879-0.393 0.879-0.879v-14.121c0-0.486-0.393-0.879-0.879-0.879z"></path>
<path fill="#008aff" style="fill: var(--color1, #008aff)" d="M30.105 8.074h-4.395c-0.486 0-0.879 0.393-0.879 0.879v21.152c0 0.486 0.393 0.879 0.879 0.879h4.395c0.486 0 0.879-0.393 0.879-0.879v-21.152c0-0.486-0.393-0.879-0.879-0.879z"></path>
<path fill="#008aff" style="fill: var(--color1, #008aff)" d="M4.118 20.32c1.454 0 2.637-1.183 2.637-2.637 0-0.247-0.045-0.481-0.109-0.708l3.424-2.417c0.43 0.305 0.952 0.489 1.518 0.489 1.334 0 2.428-0.999 2.601-2.286l3.506-0.738c0.464 0.757 1.291 1.267 2.242 1.267 1.454 0 2.637-1.183 2.637-2.637 0-0.352-0.072-0.686-0.197-0.993l4.206-3.739c0.377 0.208 0.804 0.337 1.264 0.337 1.454 0 2.637-1.183 2.637-2.637s-1.183-2.637-2.637-2.637c-1.454 0-2.637 1.183-2.637 2.637 0 0.352 0.072 0.686 0.197 0.993l-4.206 3.739c-0.377-0.208-0.804-0.337-1.264-0.337-1.334 0-2.428 0.999-2.601 2.286l-3.506 0.738c-0.464-0.757-1.291-1.267-2.242-1.267-1.454 0-2.637 1.183-2.637 2.637 0 0.247 0.045 0.481 0.109 0.708l-3.424 2.417c-0.43-0.305-0.952-0.489-1.518-0.489-1.454 0-2.637 1.183-2.637 2.637s1.183 2.637 2.637 2.637z"></path>
</symbol>
<symbol id="icon-check-opportunities" viewBox="0 0 32 32">
<path fill="#008aff" style="fill: var(--color1, #008aff)" d="M26.641 11.44v13.68c2.518 0 4.56-2.042 4.56-4.56v-15.2c0-2.518-2.042-4.56-4.56-4.56h-15.2c-2.518 0-4.56 2.042-4.56 4.56h13.68c3.358 0 6.080 2.722 6.080 6.080z"></path>
<path fill="#008aff" style="fill: var(--color1, #008aff)" d="M5.36 31.2h15.2c2.518 0 4.56-2.042 4.56-4.56v-15.2c0-2.518-2.042-4.56-4.56-4.56h-15.2c-2.518 0-4.56 2.042-4.56 4.56v15.2c0 2.518 2.042 4.56 4.56 4.56zM11.464 25.12c-0.47 0.007-0.917-0.203-1.211-0.57l-3.040-3.8c-0.524-0.656-0.418-1.612 0.237-2.136s1.612-0.418 2.136 0.237l1.814 2.268 5.663-7.55c0.504-0.672 1.456-0.808 2.128-0.304s0.808 1.456 0.304 2.128l-6.84 9.12c-0.282 0.376-0.722 0.6-1.192 0.608z"></path>
</symbol>
<symbol id="icon-control-panel-opportunities" viewBox="0 0 32 32">
<path fill="#008aff" style="fill: var(--color1, #008aff)" d="M26.666 2.467h-21.333c-0.972 0-1.905 0.386-2.593 1.074s-1.074 1.62-1.074 2.593v18.667c-0.002 0.483 0.092 0.961 0.275 1.407s0.453 0.852 0.794 1.194c0.341 0.342 0.745 0.613 1.191 0.798s0.924 0.28 1.406 0.28h21.333c0.972 0 1.905-0.386 2.593-1.074s1.074-1.62 1.074-2.593v-18.68c0-0.972-0.386-1.905-1.074-2.593s-1.62-1.074-2.593-1.074zM7.999 7.8h9.667v-1.133c0-0.265 0.105-0.52 0.293-0.707s0.442-0.293 0.707-0.293c0.265 0 0.52 0.105 0.707 0.293s0.293 0.442 0.293 0.707v4c0 0.265-0.105 0.52-0.293 0.707s-0.442 0.293-0.707 0.293c-0.265 0-0.52-0.105-0.707-0.293s-0.293-0.442-0.293-0.707v-0.867h-9.667c-0.265 0-0.52-0.105-0.707-0.293s-0.293-0.442-0.293-0.707c0-0.265 0.105-0.52 0.293-0.707s0.442-0.293 0.707-0.293zM7.999 14.467h2c0.265 0 0.52 0.105 0.707 0.293s0.293 0.442 0.293 0.707c0 0.265-0.105 0.52-0.293 0.707s-0.442 0.293-0.707 0.293h-2c-0.265 0-0.52-0.105-0.707-0.293s-0.293-0.442-0.293-0.707 0.105-0.52 0.293-0.707c0.188-0.188 0.442-0.293 0.707-0.293zM16.999 24c0 0.265-0.105 0.52-0.293 0.707s-0.442 0.293-0.707 0.293c-0.265 0-0.52-0.105-0.707-0.293s-0.293-0.442-0.293-0.707v-0.867h-7c-0.265 0-0.52-0.105-0.707-0.293s-0.293-0.442-0.293-0.707c0-0.265 0.105-0.52 0.293-0.707s0.442-0.293 0.707-0.293h7v-1.133c0-0.265 0.105-0.52 0.293-0.707s0.442-0.293 0.707-0.293 0.52 0.105 0.707 0.293c0.188 0.188 0.293 0.442 0.293 0.707v4zM23.999 23.133h-4.667c-0.265 0-0.52-0.105-0.707-0.293s-0.293-0.442-0.293-0.707c0-0.265 0.105-0.52 0.293-0.707s0.442-0.293 0.707-0.293h4.667c0.265 0 0.52 0.105 0.707 0.293s0.293 0.442 0.293 0.707c0 0.265-0.105 0.52-0.293 0.707s-0.442 0.293-0.707 0.293zM23.999 16.467h-9.667v0.867c0 0.265-0.105 0.52-0.293 0.707s-0.442 0.293-0.707 0.293c-0.265 0-0.52-0.105-0.707-0.293s-0.293-0.442-0.293-0.707v-4c0-0.265 0.105-0.52 0.293-0.707s0.442-0.293 0.707-0.293c0.265 0 0.52 0.105 0.707 0.293s0.293 0.442 0.293 0.707v1.133h9.667c0.265 0 0.52 0.105 0.707 0.293s0.293 0.442 0.293 0.707c0 0.265-0.105 0.52-0.293 0.707s-0.442 0.293-0.707 0.293zM23.999 9.8h-2c-0.265 0-0.52-0.105-0.707-0.293s-0.293-0.442-0.293-0.707c0-0.265 0.105-0.52 0.293-0.707s0.442-0.293 0.707-0.293h2c0.265 0 0.52 0.105 0.707 0.293s0.293 0.442 0.293 0.707c0 0.265-0.105 0.52-0.293 0.707s-0.442 0.293-0.707 0.293z"></path>
</symbol>
<symbol id="icon-risk-opportunities" viewBox="0 0 32 32">
<path fill="#008aff" style="fill: var(--color1, #008aff)" d="M26.736 27.781l-8.299-14.375c-1.083-1.875-3.789-1.875-4.871 0l-8.299 14.375c-1.082 1.875 0.271 4.219 2.436 4.219h16.599c2.165 0 3.518-2.344 2.436-4.219zM16 28.25c-0.518 0-0.937-0.42-0.937-0.938s0.42-0.937 0.937-0.937c0.518 0 0.938 0.42 0.938 0.937s-0.42 0.938-0.938 0.938zM16.938 23.562c0 0.518-0.42 0.938-0.938 0.938s-0.937-0.42-0.937-0.938v-5.625c0-0.518 0.42-0.938 0.937-0.938s0.938 0.42 0.938 0.938v5.625z"></path>
<path fill="#008aff" style="fill: var(--color1, #008aff)" d="M10.211 10.732c1.233-1.361 2.937-2.286 4.852-2.516v-8.216c-3.921 0.225-7.576 1.858-10.376 4.658-0.092 0.092-0.182 0.184-0.271 0.278l5.796 5.796z"></path>
<path fill="#008aff" style="fill: var(--color1, #008aff)" d="M16.938 8.216c1.915 0.23 3.619 1.155 4.852 2.516l5.796-5.796c-0.089-0.093-0.18-0.186-0.271-0.278-2.8-2.8-6.455-4.433-10.376-4.658v8.216z"></path>
<path fill="#008aff" style="fill: var(--color1, #008aff)" d="M3.198 6.371c-2.075 2.755-3.198 6.091-3.198 9.601 0 0.518 0.42 0.938 0.938 0.938h6.313c0.518 0 0.938-0.42 0.938-0.938 0-1.332 0.335-2.587 0.926-3.686l-5.915-5.915z"></path>
<path fill="#008aff" style="fill: var(--color1, #008aff)" d="M28.803 6.371l-5.915 5.915c0.59 1.099 0.926 2.354 0.926 3.686 0 0.518 0.42 0.938 0.938 0.938h6.312c0.518 0 0.938-0.42 0.938-0.938 0-3.51-1.123-6.846-3.198-9.601z"></path>
</symbol>
<symbol id="icon-transparent-opportunities" viewBox="0 0 32 32">
<path fill="#008aff" style="fill: var(--color1, #008aff)" d="M22.929 7.66c0.378 0.815 0.66 1.67 0.84 2.55 1.367 0.742 2.543 1.794 3.432 3.070s1.469 2.743 1.692 4.283c0.223 1.54 0.084 3.111-0.406 4.587s-1.319 2.818-2.419 3.919c-1.1 1.1-2.442 1.928-3.919 2.419s-3.047 0.63-4.587 0.406c-1.54-0.223-3.006-0.803-4.283-1.692s-2.328-2.065-3.070-3.432c-0.88-0.18-1.736-0.462-2.55-0.84 0.666 1.921 1.81 3.641 3.323 4.999s3.347 2.309 5.328 2.764c1.982 0.455 4.046 0.399 6-0.162s3.733-1.61 5.171-3.048c1.438-1.438 2.486-3.217 3.048-5.171s0.617-4.019 0.162-6-1.406-3.815-2.764-5.328c-1.358-1.513-3.078-2.657-4.999-3.323z"></path>
<path fill="#008aff" style="fill: var(--color1, #008aff)" d="M19 7c1.338-0.003 2.667 0.22 3.93 0.66-0.778-1.679-1.951-3.146-3.417-4.275s-3.184-1.888-5.006-2.211c-1.822-0.323-3.696-0.202-5.462 0.353s-3.371 1.529-4.68 2.838c-1.309 1.309-2.282 2.914-2.838 4.68s-0.677 3.639-0.353 5.462c0.323 1.822 1.082 3.54 2.211 5.006s2.596 2.639 4.275 3.417c-0.44-1.263-0.663-2.592-0.66-3.93 0-3.183 1.264-6.235 3.515-8.485s5.303-3.515 8.485-3.515z"></path>
<path fill="#008aff" style="fill: var(--color1, #008aff)" d="M9 19c-0 1.666 0.416 3.306 1.21 4.77 1.861 0.378 3.787 0.29 5.606-0.258s3.473-1.537 4.816-2.88c1.343-1.343 2.332-2.998 2.88-4.816s0.636-3.745 0.258-5.606c-1.523-0.827-3.235-1.243-4.968-1.209s-3.427 0.518-4.916 1.405c-1.489 0.886-2.723 2.144-3.579 3.651s-1.307 3.21-1.307 4.943z"></path>
</symbol>
<symbol id="icon-shuttle-hero" viewBox="0 0 31 32">
<path fill="#008aff" style="fill: var(--color1, #008aff)" d="M31.183 2.721c-0.068-1.24-1.054-2.226-2.294-2.294-2.502-0.137-7.399-0.004-12.081 2.418-2.387 1.235-4.911 3.328-6.926 5.743-0.025 0.030-0.049 0.060-0.074 0.090l-4.572 0.353c-0.753 0.058-1.423 0.453-1.839 1.082l-3.119 4.718c-0.316 0.477-0.366 1.075-0.134 1.598s0.707 0.888 1.273 0.976l3.852 0.597c-0.014 0.075-0.027 0.15-0.040 0.225-0.128 0.767 0.126 1.556 0.68 2.11l5.365 5.365c0.459 0.459 1.080 0.713 1.716 0.713 0.131 0 0.263-0.011 0.394-0.033 0.075-0.012 0.15-0.026 0.225-0.040l0.597 3.852c0.088 0.566 0.452 1.041 0.976 1.273 0.218 0.096 0.448 0.144 0.678 0.144 0.322 0 0.642-0.094 0.921-0.278l4.718-3.119c0.63-0.416 1.024-1.087 1.082-1.839l0.353-4.572c0.030-0.025 0.060-0.049 0.090-0.074 2.415-2.015 4.508-4.539 5.743-6.926 2.422-4.682 2.555-9.579 2.418-12.081zM20.488 26.687l-4.513 2.984-0.581-3.754c1.907-0.561 3.794-1.459 5.592-2.662l-0.23 2.978c-0.014 0.186-0.112 0.351-0.267 0.454zM12.568 24.407l-5.365-5.365c-0.137-0.137-0.2-0.329-0.169-0.515 0.16-0.954 0.407-1.862 0.714-2.717l8.050 8.050c-1.027 0.368-1.947 0.587-2.715 0.716-0.186 0.031-0.378-0.032-0.515-0.169zM5.377 10.854l2.978-0.23c-1.203 1.797-2.101 3.684-2.662 5.592l-3.754-0.581 2.984-4.513c0.103-0.155 0.268-0.253 0.454-0.267zM21.85 20.323c-1.478 1.232-2.912 2.124-4.234 2.769l-9.099-9.099c0.845-1.726 1.876-3.163 2.769-4.234 1.864-2.235 4.183-4.163 6.362-5.29 4.297-2.223 8.825-2.342 11.141-2.216 0.307 0.017 0.55 0.261 0.567 0.567 0.126 2.316 0.006 6.844-2.216 11.141-1.127 2.178-3.055 4.497-5.29 6.362z"></path>
<path fill="#008aff" style="fill: var(--color1, #008aff)" d="M21.384 14.795c1.171-0 2.342-0.446 3.234-1.337 0.864-0.864 1.339-2.012 1.339-3.234s-0.476-2.37-1.339-3.234c-1.783-1.783-4.684-1.783-6.467 0-0.864 0.864-1.339 2.012-1.339 3.234s0.476 2.37 1.339 3.234c0.892 0.892 2.062 1.337 3.234 1.337zM19.444 8.284c0.535-0.535 1.238-0.802 1.94-0.802s1.405 0.267 1.94 0.802c0.518 0.518 0.804 1.207 0.804 1.94s-0.285 1.422-0.804 1.94c-1.070 1.070-2.811 1.070-3.88 0-0.518-0.518-0.804-1.207-0.804-1.94s0.285-1.422 0.804-1.94z"></path>
<path fill="#008aff" style="fill: var(--color1, #008aff)" d="M0.933 26.118c0.234 0 0.468-0.089 0.647-0.268l2.986-2.986c0.357-0.357 0.357-0.936 0-1.293s-0.936-0.357-1.293 0l-2.986 2.986c-0.357 0.357-0.357 0.936 0 1.294 0.179 0.179 0.413 0.268 0.647 0.268z"></path>
<path fill="#008aff" style="fill: var(--color1, #008aff)" d="M7.302 24.307c-0.357-0.357-0.936-0.357-1.293 0l-5.741 5.741c-0.357 0.357-0.357 0.936 0 1.294 0.179 0.179 0.413 0.268 0.647 0.268s0.468-0.089 0.647-0.268l5.741-5.741c0.357-0.357 0.357-0.936 0-1.293z"></path>
<path fill="#008aff" style="fill: var(--color1, #008aff)" d="M8.745 27.044l-2.986 2.986c-0.357 0.357-0.357 0.936 0 1.294 0.179 0.179 0.413 0.268 0.647 0.268s0.468-0.089 0.647-0.268l2.986-2.986c0.357-0.357 0.357-0.936 0-1.294s-0.936-0.357-1.293 0z"></path>
</symbol>
<symbol id="icon-management-hero" viewBox="0 0 31 32">
<path fill="#008aff" style="fill: var(--color1, #008aff)" d="M28.875 19.781h-0.612v-0.604c0-1.684-1.37-3.055-3.055-3.055h-8.683v-1.829h4.36c0.505 0 0.915-0.41 0.915-0.915v-2.033c0-2.096-1.094-4.032-2.842-5.128 0.336-0.574 0.529-1.24 0.529-1.951 0-2.138-1.739-3.877-3.877-3.877s-3.877 1.739-3.877 3.877c0 0.711 0.193 1.378 0.529 1.951-1.748 1.096-2.842 3.031-2.842 5.128v2.033c0 0.505 0.41 0.915 0.915 0.915h4.36v1.829h-8.652c-1.685 0-3.055 1.371-3.055 3.055v0.604h-0.643c-1.293 0-2.345 1.052-2.345 2.345v7.139c0 1.293 1.052 2.345 2.345 2.345h3.054c1.293 0 2.345-1.052 2.345-2.345v-7.139c0-1.293-1.052-2.345-2.345-2.345h-0.582v-0.604c0-0.676 0.55-1.226 1.226-1.226h8.652v1.829h-2.777c-1.293 0-2.345 1.052-2.345 2.345v7.139c0 1.293 1.052 2.345 2.345 2.345h7.383c1.293 0 2.345-1.052 2.345-2.345v-7.139c0-1.293-1.052-2.345-2.345-2.345h-2.777v-1.829h8.683c0.676 0 1.226 0.55 1.226 1.226v0.604h-0.612c-1.293 0-2.345 1.052-2.345 2.345v7.139c0 1.293 1.052 2.345 2.345 2.345h3.054c1.293 0 2.345-1.052 2.345-2.345v-7.139c0-1.293-1.052-2.345-2.345-2.345zM15.61 2.22c1.129 0 2.047 0.918 2.047 2.047s-0.918 2.047-2.047 2.047c-1.129 0-2.047-0.918-2.047-2.047s0.918-2.047 2.047-2.047zM11.249 11.345c0-1.598 0.911-3.063 2.334-3.775 0.348 0.214 0.731 0.374 1.139 0.47v1.897c0 0.505 0.41 0.915 0.915 0.915s0.915-0.41 0.915-0.915v-1.91c0.387-0.097 0.752-0.253 1.083-0.457 1.423 0.712 2.334 2.177 2.334 3.775v1.118h-8.721v-1.118zM5.915 22.125v7.139c0 0.284-0.231 0.516-0.516 0.516h-3.054c-0.284 0-0.516-0.231-0.516-0.516v-7.139c0-0.284 0.231-0.516 0.516-0.516h3.054c0.284 0 0.516 0.231 0.516 0.516zM19.817 22.125v7.139c0 0.284-0.231 0.516-0.516 0.516h-7.383c-0.284 0-0.516-0.231-0.516-0.516v-7.139c0-0.284 0.231-0.516 0.516-0.516h7.383c0.284 0 0.516 0.231 0.516 0.516zM29.39 29.265c0 0.284-0.231 0.516-0.516 0.516h-3.054c-0.284 0-0.516-0.231-0.516-0.516v-7.139c0-0.284 0.231-0.516 0.516-0.516h3.054c0.284 0 0.516 0.231 0.516 0.516v7.139z"></path>
</symbol>
<symbol id="icon-budgeting-hero" viewBox="0 0 31 32">
<path fill="#008aff" style="fill: var(--color1, #008aff)" d="M29.997 16.413h-6.086c-0.087-0.742-0.259-1.459-0.505-2.141h6.685c0.503 0 0.913-0.405 0.918-0.908 0.080-7.243-5.767-12.974-12.82-12.974-0.507 0-0.918 0.411-0.918 0.918v7.010c-0.668-0.218-1.367-0.366-2.090-0.434v-3.462c0-0.507-0.411-0.918-0.918-0.918-7.767 0-14.053 6.285-14.053 14.053 0 7.766 6.286 14.052 14.053 14.052 3.109 0 6.055-0.995 8.521-2.878 0.406-0.31 0.48-0.89 0.169-1.292l-2.117-2.735c0.629-0.579 1.181-1.239 1.641-1.964l2.643 3.415c0.309 0.399 0.882 0.474 1.283 0.168 2.826-2.158 4.47-5.432 4.512-8.981 0.006-0.511-0.407-0.929-0.918-0.929zM19.108 2.264c5.29 0.434 9.656 4.678 10.039 10.171h-6.631c-0.847-1.359-2.019-2.495-3.407-3.297v-6.874zM20.914 27.806c-1.978 1.29-4.259 1.967-6.651 1.967-6.736 0-12.217-5.48-12.217-12.216 0-6.427 4.989-11.711 11.298-12.182v2.51c-4.928 0.464-8.798 4.624-8.798 9.672 0 5.357 4.358 9.716 9.716 9.716 1.874 0 3.625-0.534 5.111-1.456l1.54 1.99zM14.263 25.436c-4.345 0-7.879-3.535-7.879-7.879s3.535-7.879 7.879-7.879 7.879 3.535 7.879 7.879c0 4.345-3.535 7.879-7.879 7.879zM25.988 24.277l-2.606-3.366c0.309-0.839 0.506-1.732 0.572-2.661h5.070c-0.248 2.318-1.319 4.444-3.036 6.027z"></path>
<path fill="#008aff" style="fill: var(--color1, #008aff)" d="M15.25 16.639h-1.972c-0.47 0-0.853-0.383-0.853-0.853 0-0.472 0.382-0.853 0.853-0.853 0.005 0 0.009 0 0.013 0h1.889c0.337 0.003 0.67 0.155 0.915 0.416 0.347 0.37 0.928 0.389 1.298 0.042s0.389-0.928 0.042-1.298c-0.614-0.655-1.455-0.996-2.252-0.996v-0.8c0-0.507-0.411-0.918-0.918-0.918s-0.918 0.411-0.918 0.918v0.8c-1.655 0-2.757 1.279-2.757 2.689 0 1.483 1.206 2.689 2.689 2.689h1.972c0.47 0 0.853 0.383 0.853 0.853 0 0.453-0.358 0.853-0.866 0.853h-2.060c-0.238-0.003-0.491-0.088-0.712-0.242-0.417-0.289-0.989-0.186-1.278 0.231s-0.186 0.989 0.231 1.278c0.644 0.447 1.233 0.569 1.928 0.569v0.8c0 0.507 0.411 0.918 0.918 0.918s0.918-0.411 0.918-0.918v-0.8c1.669 0 2.757-1.292 2.757-2.689 0-1.483-1.206-2.689-2.689-2.689z"></path>
</symbol>
<symbol id="icon-star-ans" viewBox="0 0 32 32">
<path fill="#008aff" style="fill: var(--color1, #008aff)" d="M1.766 16.534l4.747 3.467-1.803 5.583c-0.291 0.866-0.295 1.803-0.011 2.671s0.842 1.621 1.589 2.147c0.734 0.542 1.625 0.833 2.538 0.828s1.8-0.304 2.529-0.854l4.641-3.416 4.643 3.412c0.733 0.539 1.618 0.832 2.529 0.837s1.798-0.28 2.536-0.812c0.738-0.532 1.289-1.285 1.573-2.149s0.286-1.797 0.006-2.663l-1.803-5.583 4.747-3.467c0.732-0.535 1.276-1.288 1.555-2.151s0.277-1.792-0.004-2.655-0.827-1.614-1.561-2.147c-0.734-0.533-1.617-0.821-2.524-0.823h-5.831l-1.769-5.515c-0.278-0.868-0.825-1.625-1.561-2.163s-1.624-0.827-2.536-0.827c-0.912 0-1.8 0.289-2.536 0.827s-1.283 1.295-1.561 2.163l-1.769 5.515h-5.825c-0.907 0.001-1.79 0.289-2.524 0.823s-1.28 1.285-1.561 2.147c-0.281 0.862-0.282 1.792-0.004 2.655s0.823 1.616 1.555 2.151h-0.005z"></path>
</symbol>
<symbol id="icon-logo-footer" viewBox="0 0 39 32">
<path fill="#34495e" style="fill: var(--color3, #34495e)" d="M35.62 16c0 8.837-7.249 16-16.19 16s-16.19-7.163-16.19-16c0-8.837 7.249-16 16.19-16s16.19 7.163 16.19 16z"></path>
<path fill="#fafafa" style="fill: var(--color2, #fafafa)" d="M30.506 22.827c-0.368 0.071-7.496 1.347-11.078-3.289-2.847 3.654-7.894 3.769-11.022 3.303-9.099-2.502-8.398-12.015-8.392-12.107 0.010-0.141 0.062-0.275 0.149-0.385s0.204-0.191 0.337-0.231c0.132-0.041 0.273-0.041 0.405-0.001s0.25 0.12 0.338 0.228c0.021 0.028 2.284 2.828 5.206 2.934 1.625 0.071 3.21-0.764 4.636-2.332 1.727-1.402 5.752-2.47 8.343 0.879 0.882-1.148 2.147-1.925 3.554-2.183 1.7-0.193 3.409 0.273 4.789 1.304 1.426 1.568 3.012 2.403 4.636 2.332 2.922-0.106 5.185-2.906 5.206-2.935 0.089-0.107 0.206-0.184 0.338-0.224s0.272-0.038 0.403 0.004c0.131 0.042 0.247 0.121 0.334 0.23s0.14 0.241 0.154 0.38c0.007 0.092 0.708 9.605-8.336 12.093z"></path>
</symbol>
<symbol id="icon-tg" viewBox="0 0 32 32">
<path d="M28.622 3.654c-4.011 1.661-21.206 8.784-25.958 10.725-3.187 1.243-1.321 2.409-1.321 2.409s2.72 0.933 5.052 1.632c2.332 0.7 3.575-0.078 3.575-0.078l10.958-7.383c3.886-2.642 2.953-0.466 2.021 0.466-2.021 2.021-5.363 5.207-8.16 7.772-1.244 1.088-0.622 2.021-0.078 2.487 2.021 1.71 7.539 5.207 7.85 5.44 1.642 1.162 4.871 2.835 5.363-0.7l1.943-12.202c0.622-4.119 1.244-7.927 1.321-9.015 0.233-2.642-2.565-1.554-2.565-1.554z"></path>
</symbol>
<symbol id="icon-tik" viewBox="0 0 28 32">
<path  d="M27.054 7.029c-3.359 0-6.091-2.733-6.091-6.092 0-0.518-0.42-0.938-0.938-0.938h-5.021c-0.518 0-0.938 0.42-0.938 0.938v20.585c0 1.975-1.607 3.581-3.581 3.581s-3.581-1.607-3.581-3.581c0-1.975 1.607-3.581 3.581-3.581 0.518 0 0.938-0.42 0.938-0.938v-5.021c0-0.518-0.42-0.938-0.938-0.938-5.777 0-10.477 4.7-10.477 10.477s4.7 10.477 10.477 10.477c5.777 0 10.477-4.7 10.477-10.477v-9.112c1.866 0.995 3.942 1.514 6.092 1.514 0.518 0 0.938-0.42 0.938-0.938v-5.021c-0-0.518-0.42-0.938-0.938-0.938z"></path>
</symbol>
<symbol id="icon-youtube" viewBox="0 0 43 32">
<path  d="M41.004 3.565c-1.54-1.831-4.384-2.578-9.814-2.578h-19.713c-5.555 0-8.447 0.795-9.981 2.744-1.496 1.9-1.496 4.701-1.496 8.576v7.387c0 7.508 1.775 11.32 11.477 11.32h19.713c4.709 0 7.319-0.659 9.007-2.275 1.731-1.657 2.47-4.362 2.47-9.045v-7.387c0-4.087-0.116-6.904-1.663-8.743zM27.392 17.020l-8.951 4.678c-0.2 0.105-0.419 0.156-0.637 0.156-0.247 0-0.494-0.067-0.713-0.199-0.412-0.25-0.663-0.696-0.663-1.177v-9.327c0-0.481 0.251-0.927 0.662-1.176s0.922-0.267 1.349-0.045l8.951 4.648c0.455 0.236 0.741 0.707 0.742 1.22s-0.284 0.984-0.739 1.222z"></path>
</symbol>
<symbol id="icon-right-btn" viewBox="0 0 32 32">
<path  d="M20.535 13.173l-6.12-6.12c-0.25-0.248-0.588-0.388-0.94-0.388s-0.69 0.139-0.94 0.388c-0.125 0.124-0.224 0.271-0.292 0.434s-0.103 0.337-0.103 0.513c0 0.176 0.035 0.35 0.103 0.513s0.167 0.31 0.292 0.434l6.133 6.107c0.125 0.124 0.224 0.271 0.292 0.434s0.103 0.337 0.103 0.513-0.035 0.35-0.103 0.513c-0.068 0.162-0.167 0.31-0.292 0.434l-6.133 6.107c-0.251 0.249-0.393 0.588-0.394 0.942s0.138 0.694 0.387 0.945 0.588 0.393 0.942 0.394c0.354 0.001 0.694-0.138 0.945-0.387l6.12-6.12c0.749-0.75 1.17-1.767 1.17-2.827s-0.421-2.077-1.17-2.827z"></path>
</symbol>
<symbol id="icon-logo" viewBox="0 0 39 32">
<path fill="#34495e" style="fill: var(--color3, #34495e)" d="M35.62 16c0 8.837-7.249 16-16.19 16s-16.19-7.163-16.19-16c0-8.837 7.249-16 16.19-16s16.19 7.163 16.19 16z"></path>
<path fill="#008aff" style="fill: var(--color1, #008aff)" d="M30.506 22.827c-0.368 0.071-7.496 1.347-11.078-3.289-2.847 3.654-7.894 3.769-11.022 3.303-9.099-2.502-8.398-12.015-8.392-12.107 0.010-0.141 0.062-0.275 0.149-0.385s0.204-0.191 0.337-0.231c0.132-0.041 0.273-0.041 0.405-0.001s0.25 0.12 0.338 0.228c0.021 0.028 2.284 2.828 5.206 2.935 1.625 0.071 3.21-0.764 4.636-2.332 1.727-1.402 5.752-2.47 8.343 0.879 0.882-1.148 2.147-1.925 3.554-2.183 1.7-0.193 3.409 0.273 4.789 1.304 1.426 1.568 3.012 2.403 4.636 2.332 2.922-0.106 5.185-2.906 5.206-2.935 0.089-0.107 0.206-0.184 0.338-0.224s0.272-0.038 0.403 0.004c0.131 0.042 0.247 0.122 0.334 0.23s0.14 0.24 0.154 0.38c0.007 0.092 0.708 9.605-8.336 12.093z"></path>
</symbol>
<symbol id="icon-check" viewBox="0 0 30 32">
<path fill="#008aff" style="fill: var(--color1, #008aff)" d="M1.865 20.971l5.127 5.127c0.692 0.692 1.631 1.081 2.61 1.081s1.918-0.389 2.61-1.081l15.835-15.835c0.224-0.232 0.348-0.543 0.346-0.866s-0.132-0.631-0.36-0.86c-0.228-0.228-0.537-0.358-0.86-0.36s-0.634 0.121-0.866 0.345l-15.835 15.835c-0.231 0.231-0.544 0.36-0.87 0.36s-0.639-0.13-0.87-0.36l-5.127-5.127c-0.232-0.224-0.543-0.348-0.866-0.345s-0.631 0.132-0.86 0.36c-0.228 0.228-0.358 0.537-0.36 0.86s0.121 0.634 0.345 0.866z"></path>
</symbol>
<symbol id="icon-checkProg" viewBox="0 0 32 32">
<path fill="#008aff" style="fill: var(--color1, #008aff)" d="M5.196 5.296c-5.897 5.961-5.865 15.608 0.096 21.506s15.609 5.865 21.506-0.096 5.865-15.609-0.096-21.506c-5.961-5.897-15.608-5.865-21.506 0.096zM23.4 13.084l-8.269 8.365c-0.705 0.705-1.859 0.705-2.564 0l-1.282-1.282-2.692-2.66c-0.705-0.705-0.705-1.859 0-2.564s1.859-0.705 2.564 0l2.692 2.66 6.987-7.051c0.705-0.705 1.859-0.705 2.564 0 0.705 0.673 0.705 1.827-0 2.532z"></path>
</symbol>
<symbol id="icon-logo-form" viewBox="0 0 39 32">
<path fill="#f5f6fa" style="fill: var(--color1, #f5f6fa)" opacity="0.3" d="M35.621 16c0 8.837-7.249 16-16.19 16s-16.19-7.163-16.19-16c0-8.837 7.249-16 16.19-16s16.19 7.163 16.19 16z"></path>
<path fill="#f5f6fa" style="fill: var(--color1, #f5f6fa)" d="M30.506 22.827c-0.368 0.071-7.496 1.347-11.078-3.289-2.847 3.654-7.894 3.769-11.022 3.303-9.099-2.502-8.398-12.015-8.392-12.107 0.010-0.141 0.062-0.275 0.149-0.385s0.204-0.191 0.337-0.231c0.132-0.041 0.273-0.041 0.405-0.001s0.25 0.12 0.338 0.228c0.021 0.028 2.284 2.828 5.206 2.935 1.625 0.071 3.21-0.764 4.636-2.332 1.727-1.402 5.752-2.47 8.343 0.879 0.882-1.148 2.147-1.925 3.554-2.183 1.7-0.193 3.409 0.273 4.789 1.304 1.426 1.568 3.012 2.403 4.636 2.332 2.922-0.106 5.185-2.906 5.206-2.935 0.089-0.107 0.206-0.185 0.338-0.224s0.272-0.038 0.403 0.004c0.131 0.042 0.247 0.122 0.334 0.23s0.14 0.24 0.154 0.38c0.007 0.092 0.708 9.605-8.336 12.093z"></path>
</symbol>
<symbol id="icon-privat" viewBox="0 0 32 32">
<path fill="#76ae42" style="fill: var(--color6, #76ae42)" d="M30 29.2h-13.626c0-1.1 0.011-2.181-0.003-3.263-0.019-1.5-0.22-2.974-0.71-4.399-1.11-3.228-3.444-5.088-6.735-5.88-1.713-0.412-3.457-0.439-5.205-0.431-0.556 0.003-1.112 0-1.682 0v-13.227h27.961v27.2zM24.212 23.579v-15.939h-16.372v2.125c8.192 1.142 12.989 5.655 14.17 13.815l2.202-0.001z"></path>
<path fill="#1f1f1f" style="fill: var(--color7, #1f1f1f)" d="M2 29.19v-10.615h10.935v10.615h-10.935z"></path>
</symbol>
<symbol id="icon-mono" viewBox="0 0 32 32">
<path fill="#000" style="fill: var(--color8, #000)" d="M25.213 2.105h-18.444c-2.566 0-4.646 2.080-4.646 4.646v18.46c0 2.566 2.080 4.646 4.646 4.646h18.444c2.566 0 4.646-2.080 4.646-4.646v-18.46c0-2.566-2.080-4.646-4.646-4.646z"></path>
<path fill="#fff" style="fill: var(--color9, #fff)" d="M11.379 18.165v-3.129c0-0.888-0.475-1.309-1.273-1.309-0.664 0-1.237 0.394-1.489 0.789-0.162-0.493-0.565-0.789-1.201-0.789-0.664 0-1.237 0.412-1.417 0.672v-0.565h-1.139v4.33h1.139v-2.914c0.17-0.242 0.502-0.511 0.897-0.511 0.466 0 0.646 0.287 0.646 0.69v2.734h1.148v-2.923c0.161-0.233 0.493-0.502 0.897-0.502 0.466 0 0.646 0.287 0.646 0.69v2.735l1.148 0zM14.508 18.273c-1.426 0-2.286-1.040-2.286-2.277 0-1.228 0.861-2.268 2.286-2.268 1.435 0 2.295 1.040 2.295 2.268 0 1.237-0.861 2.277-2.295 2.277zM14.508 17.26c0.709 0 1.112-0.583 1.112-1.264 0-0.672-0.403-1.255-1.112-1.255s-1.103 0.583-1.103 1.255c0 0.682 0.395 1.264 1.103 1.264zM21.708 18.165v-3.057c0-0.843-0.457-1.381-1.408-1.381-0.709 0-1.237 0.341-1.515 0.672v-0.565h-1.139v4.331h1.139v-2.914c0.188-0.26 0.538-0.511 0.986-0.511 0.484 0 0.798 0.206 0.798 0.807v2.618h1.139zM24.846 18.273c-1.426 0-2.286-1.040-2.286-2.277 0-1.228 0.861-2.268 2.286-2.268 1.435 0 2.295 1.040 2.295 2.268 0 1.237-0.861 2.277-2.295 2.277zM24.846 17.26c0.708 0 1.112-0.583 1.112-1.264 0-0.672-0.404-1.255-1.112-1.255s-1.103 0.583-1.103 1.255c0 0.682 0.395 1.264 1.103 1.264z"></path>
</symbol>
<symbol id="icon-a" viewBox="0 0 32 32">
<path fill="#00d352" style="fill: var(--color12, #00d352)" d="M8.078 11.647c0.239-1.067 0.357-4.895-4.937-5.017-0.24 1.067-0.357 4.891 4.937 5.017z"></path>
<path fill="#00d352" style="fill: var(--color12, #00d352)" d="M8.145 25.391c-1.189 0-2.126 0.504-3 0.218-1.723-0.563-3.651-3.76-3.958-6.945-0.277-2.874 0.861-4.71 2.277-5.492 1.84-1.013 3.307-0.282 4.681-0.282s2.886-0.731 4.727 0.282c1.416 0.781 2.555 2.618 2.277 5.492-0.307 3.181-2.235 6.382-3.958 6.945-0.874 0.286-1.857-0.218-3.046-0.218z"></path>
<path fill="#1f1f1f" style="fill: var(--color7, #1f1f1f)" d="M22.149 20.387l2.092-5.21 2.071 5.21h-4.164zM17.666 25.513h2.349l1.332-3.206h5.773l1.345 3.206h2.391l-5.433-12.68h-2.323l-5.433 12.68z"></path>
</symbol>
<symbol id="icon-credi" viewBox="0 0 32 32">
<path fill="#6fe817" style="fill: var(--color10, #6fe817)" d="M10.484 16.001c0-3.063 2.482-5.545 5.545-5.545s5.544 2.483 5.544 5.545c0 3.062-2.482 5.545-5.544 5.545s-5.545-2.483-5.545-5.545z"></path>
<path fill="#00966e" style="fill: var(--color11, #00966e)" d="M19.874 8.977c0-1.755 1.423-3.178 3.178-3.178s3.179 1.423 3.179 3.178c0 1.755-1.423 3.178-3.179 3.178s-3.178-1.423-3.178-3.178zM3.499 16.001c0-6.899 5.589-12.492 12.485-12.501v4.517c-4.402 0.008-7.968 3.579-7.968 7.983 0 4.409 3.574 7.983 7.983 7.983 4.383 0 7.983-3.54 7.983-8.013l4.517 0.003c0 6.931-5.596 12.527-12.5 12.527s-12.499-5.596-12.499-12.499z"></path>
</symbol>
<symbol id="icon-bank" viewBox="0 0 32 32">
<path d="M18.114 2.057c-0.743 0.743-0.4 1.371 0.8 1.371 0.629 0 1.086-0.286 0.971-0.686-0.286-0.8-1.257-1.2-1.771-0.686z"></path>
<path d="M14.857 3.2c0 0.514 0.4 0.8 0.971 0.686 1.429-0.286 1.6-1.6 0.229-1.6-0.686 0-1.2 0.343-1.2 0.914z"></path>
<path d="M20.971 2.629c-0.457 0.457 0.057 1.371 0.8 1.371 0.286 0 0.514-0.4 0.514-0.857 0-0.857-0.686-1.143-1.314-0.514z"></path>
<path d="M12.229 3.486c-0.571 0.971 0.743 2.057 1.543 1.257 0.686-0.686 0.229-1.886-0.629-1.886-0.286 0-0.686 0.286-0.914 0.629z"></path>
<path d="M23.429 4c0 0.286 0.286 0.571 0.571 0.571 0.343 0 0.571-0.286 0.571-0.571 0-0.343-0.229-0.571-0.571-0.571-0.286 0-0.571 0.229-0.571 0.571z"></path>
<path d="M9.143 5.429c0 0.457 0.514 0.857 1.143 0.857s1.143-0.4 1.143-0.857c0-0.457-0.514-0.857-1.143-0.857s-1.143 0.4-1.143 0.857z"></path>
<path d="M25.143 5.143c0 0.286 0.286 0.571 0.571 0.571 0.343 0 0.571-0.286 0.571-0.571 0-0.343-0.229-0.571-0.571-0.571-0.286 0-0.571 0.229-0.571 0.571z"></path>
<path d="M6.686 7.086c-0.4 1.029 0.057 1.486 1.429 1.486 0.743 0 1.029-0.343 0.914-0.971-0.229-1.257-1.943-1.657-2.343-0.514z"></path>
<path d="M5.257 9.657c-1.143 0.686-0.571 2.629 0.743 2.629 0.8 0 1.143-0.4 1.143-1.371 0-1.543-0.743-2-1.886-1.257z"></path>
<path d="M8.971 10.686c-0.229 0.171-0.4 0.686-0.4 1.143 0 0.857 1.486 1.029 1.943 0.229 0.4-0.629-1.029-1.886-1.543-1.371z"></path>
<path d="M19.143 10.857c-0.171 0.286-0.057 0.571 0.229 0.571 0.343 0 0.629-0.286 0.629-0.571 0-0.343-0.114-0.571-0.229-0.571-0.171 0-0.457 0.229-0.629 0.571z"></path>
<path d="M11.714 11.371c-0.4 0.686 0.686 1.371 1.429 0.914 0.629-0.4 0.229-1.429-0.571-1.429-0.286 0-0.629 0.229-0.857 0.514z"></path>
<path d="M14.629 11.371c-0.229 0.286-0.114 0.686 0.171 0.857 0.286 0.229 0.686 0.114 0.857-0.171 0.229-0.286 0.114-0.686-0.171-0.857-0.286-0.229-0.686-0.114-0.857 0.171z"></path>
<path d="M16.571 11.429c0 0.286 0.286 0.571 0.571 0.571 0.343 0 0.571-0.286 0.571-0.571 0-0.343-0.229-0.571-0.571-0.571-0.286 0-0.571 0.229-0.571 0.571z"></path>
<path d="M3.257 13.886c-0.457 1.2 0.457 2.229 1.657 2 1.543-0.286 1.429-2.4-0.114-2.629-0.686-0.114-1.371 0.171-1.543 0.629z"></path>
<path d="M18.057 15.257c-0.629 0.629-0.343 1.314 0.514 1.314 0.457 0 0.857-0.229 0.857-0.514 0-0.743-0.914-1.257-1.371-0.8z"></path>
<path d="M21.143 15.429c0 0.286 0.286 0.571 0.571 0.571 0.343 0 0.571-0.286 0.571-0.571 0-0.343-0.229-0.571-0.571-0.571-0.286 0-0.571 0.229-0.571 0.571z"></path>
<path d="M14.514 16.057c-0.571 0.971 0.743 2.057 1.543 1.257 0.686-0.686 0.229-1.886-0.629-1.886-0.286 0-0.686 0.286-0.914 0.629z"></path>
<path d="M8 16.914c-0.629 0.686-0.629 1.029 0.114 1.714 0.457 0.457 1.257 0.686 1.771 0.457 1.2-0.457 1.257-2.286 0.057-2.743s-1.143-0.457-1.943 0.571z"></path>
<path d="M11.429 17.2c0 0.8 0.286 1.086 0.971 0.971 1.486-0.286 1.657-2.171 0.229-2.171-0.857 0-1.2 0.343-1.2 1.2z"></path>
<path d="M4.114 17.086c-1.2 0.743-0.571 2.629 0.971 2.8 1.657 0.229 2.457-0.857 1.714-2.286-0.629-1.143-1.486-1.314-2.686-0.514z"></path>
<path d="M20.857 20c-0.171 0.286-0.057 0.571 0.229 0.571 0.343 0 0.629-0.286 0.629-0.571 0-0.343-0.114-0.571-0.229-0.571-0.171 0-0.457 0.229-0.629 0.571z"></path>
<path d="M23.143 20c-0.171 0.286-0.057 0.571 0.229 0.571 0.343 0 0.629-0.286 0.629-0.571 0-0.343-0.114-0.571-0.229-0.571-0.171 0-0.457 0.229-0.629 0.571z"></path>
<path d="M18.857 20.571c0 0.286 0.286 0.571 0.571 0.571 0.343 0 0.571-0.286 0.571-0.571 0-0.343-0.229-0.571-0.571-0.571-0.286 0-0.571 0.229-0.571 0.571z"></path>
<path d="M5.143 21.486c-0.629 0.686-0.571 1.029 0.171 1.771s1.086 0.8 1.771 0.171c1.143-0.914 1.143-2.057 0-2.514-1.2-0.457-1.143-0.457-1.943 0.571z"></path>
<path d="M16.571 21.143c0 0.286 0.286 0.571 0.571 0.571 0.343 0 0.571-0.286 0.571-0.571 0-0.343-0.229-0.571-0.571-0.571-0.286 0-0.571 0.229-0.571 0.571z"></path>
<path d="M14.114 21.486c-0.457 0.457 0.057 1.371 0.8 1.371 0.286 0 0.514-0.4 0.514-0.857 0-0.857-0.686-1.143-1.314-0.514z"></path>
<path d="M10.971 23.257c0.229 1.2 1.886 1.429 1.886 0.171 0-0.457-0.457-0.914-1.029-1.029-0.8-0.171-1.029 0.057-0.857 0.857z"></path>
<path d="M8.171 23.829c-1.029 0.4-0.914 2.4 0.171 2.857 0.457 0.171 1.314-0.057 1.771-0.571 0.743-0.743 0.8-1.086 0.171-1.771-0.743-0.971-0.971-1.029-2.114-0.514z"></path>
<path d="M11.257 26.686c-0.8 0.743-0.4 1.886 0.629 1.886 1.371 0 1.829-0.457 1.429-1.486-0.286-0.857-1.429-1.086-2.057-0.4z"></path>
<path d="M25.714 26.857c0 0.286 0.286 0.571 0.571 0.571 0.343 0 0.571-0.286 0.571-0.571 0-0.343-0.229-0.571-0.571-0.571-0.286 0-0.571 0.229-0.571 0.571z"></path>
<path d="M14.057 28.286c-0.171 0.514 0.057 1.029 0.571 1.257 1.086 0.4 2.229-0.629 1.714-1.486-0.571-0.914-1.886-0.743-2.286 0.229z"></path>
<path d="M23.429 28c0 0.286 0.4 0.571 0.857 0.571s0.857-0.286 0.857-0.571c0-0.343-0.4-0.571-0.857-0.571s-0.857 0.229-0.857 0.571z"></path>
<path d="M17.371 28.629c-0.571 0.971 0.743 2.057 1.543 1.257 0.686-0.686 0.229-1.886-0.629-1.886-0.286 0-0.686 0.286-0.914 0.629z"></path>
<path d="M20.286 28.514c-0.171 0.286-0.057 0.686 0.286 0.914 0.686 0.4 1.714-0.114 1.714-0.914 0-0.686-1.543-0.686-2 0z"></path>
</symbol>
</defs>
</svg>
