<svg aria-hidden="true" style="position: absolute; width: 0; height: 0; overflow: hidden;" version="1.1" xmlns="http://www.w3.org/2000/svg" xmlns:xlink="http://www.w3.org/1999/xlink">
<defs>
<symbol id="icon-Bell" viewBox="0 0 32 32">
<path fill="#007aff" style="fill: var(--color1, #007aff)" d="M28.141 20.64c-0.592-0.507-0.933-1.247-0.933-2.027v-6.426c0-5.266-4.773-9.519-10.666-9.519s-10.666 4.253-10.666 9.519v6.426c0 0.779-0.341 1.52-0.933 2.027-2.013 1.8-0.587 4.866 2.267 4.866h5.066c0.646 1.8 2.353 3.001 4.266 3.001s3.62-1.201 4.267-3.001h5.066c2.853 0 4.28-3.067 2.267-4.866zM16.542 26.506c-0.794-0.003-1.541-0.372-2.027-1h4c-0.47 0.618-1.197 0.987-1.973 1zM25.888 23.506c0.485 0.044 0.946-0.216 1.16-0.653 0.104-0.263 0.009-0.564-0.227-0.72-1.005-0.896-1.585-2.174-1.6-3.52v-6.426c0-4.146-3.893-7.52-8.666-7.52s-8.666 3.373-8.666 7.52v6.426c-0.015 1.346-0.595 2.624-1.6 3.52-0.241 0.152-0.341 0.453-0.24 0.72 0.214 0.437 0.675 0.697 1.16 0.653h18.679z"></path>
</symbol>
<symbol id="icon-Bookmark" viewBox="0 0 32 32">
<path fill="#007aff" style="fill: var(--color1, #007aff)" d="M11.167 4.006h9.664c1.135-0.058 2.248 0.322 3.093 1.058s1.351 1.764 1.408 2.86v18.737c0.002 0.375-0.161 0.734-0.447 0.987s-0.67 0.379-1.058 0.345c-0.339 0-0.669-0.108-0.939-0.307l-5.978-4.384c-0.565-0.409-1.341-0.409-1.905 0l-5.923 4.384c-0.262 0.193-0.581 0.301-0.911 0.307-0.387 0.034-0.771-0.092-1.058-0.345s-0.449-0.612-0.447-0.987v-18.737c0.057-1.096 0.564-2.125 1.408-2.86s1.957-1.116 3.093-1.058zM18.195 21.717l5.039 3.731-0.028-17.524c-0.131-1.162-1.195-2.012-2.402-1.919h-9.664c-1.207-0.093-2.272 0.757-2.402 1.919v17.524l5.039-3.731c1.305-0.96 3.113-0.96 4.418 0z"></path>
</symbol>
<symbol id="icon-logo" viewBox="0 0 39 32">
<path fill="#4378ff" style="fill: var(--color2, #4378ff)" opacity="0.1" d="M35.333 16c0 8.837-7.191 16-16.061 16s-16.061-7.163-16.061-16c0-8.837 7.191-16 16.061-16s16.061 7.163 16.061 16z"></path>
<path fill="#007aff" style="fill: var(--color1, #007aff)" d="M30.261 22.827c-0.365 0.071-7.436 1.347-10.989-3.289-2.824 3.654-7.831 3.769-10.934 3.303-9.026-2.502-8.331-12.015-8.324-12.107 0.010-0.141 0.062-0.275 0.148-0.385s0.203-0.191 0.334-0.231c0.131-0.041 0.271-0.041 0.402-0.001s0.248 0.12 0.335 0.228c0.021 0.028 2.265 2.828 5.164 2.935 1.612 0.071 3.184-0.764 4.599-2.332 1.713-1.402 5.706-2.47 8.276 0.879 0.875-1.148 2.13-1.925 3.525-2.183 1.686-0.193 3.382 0.273 4.751 1.304 1.415 1.568 2.988 2.403 4.599 2.332 2.899-0.106 5.143-2.906 5.164-2.935 0.088-0.107 0.205-0.185 0.335-0.224s0.269-0.038 0.399 0.004 0.245 0.122 0.331 0.23c0.086 0.108 0.139 0.241 0.153 0.38 0.007 0.092 0.702 9.605-8.269 12.093z"></path>
</symbol>
<symbol id="icon-shopping-basket" viewBox="0 0 32 32">
<path fill="#007aff" style="fill: var(--color1, #007aff)" d="M4.628 5.667h1.333l0.067 0.013c1.848 0.036 3.463 1.258 4 3.027l0.267 0.92h13.906c1.228 0.006 2.394 0.54 3.2 1.467 0.804 0.932 1.159 2.17 0.973 3.386l-0.8 5.52c-0.266 2.116-2.054 3.71-4.186 3.733h-7.84c-1.873-0.007-3.522-1.235-4.066-3.027l-3.373-11.373c-0.258-0.976-1.137-1.658-2.147-1.667h-1.333c-0.552 0-1-0.448-1-1s0.448-1 1-1zM13.4 20.067c0.283 0.949 1.156 1.6 2.147 1.6h7.84c1.103-0.012 2.038-0.817 2.213-1.907l0.8-5.533c0.109-0.644-0.069-1.304-0.486-1.806s-1.034-0.797-1.687-0.807h-13.333l2.507 8.453z"></path>
<path fill="#007aff" style="fill: var(--color1, #007aff)" d="M15.24 25.333c-0.736 0-1.333 0.597-1.333 1.333s0.597 1.333 1.333 1.333c0.736 0 1.333-0.597 1.333-1.333s-0.597-1.333-1.333-1.333z"></path>
<path fill="#007aff" style="fill: var(--color1, #007aff)" d="M23.24 25.333c-0.736 0-1.333 0.597-1.333 1.333s0.597 1.333 1.333 1.333c0.736 0 1.333-0.597 1.333-1.333s-0.597-1.333-1.333-1.333z"></path>
</symbol>
<symbol id="icon-Wallet" viewBox="0 0 31 32">
<path d="M28.16 20.887c0 3.213-2.605 5.818-5.818 5.818h-13.964c-3.213 0-5.818-2.605-5.818-5.818v-9.309c0-3.213 2.605-5.818 5.818-5.818h13.964c3.213 0 5.818 2.605 5.818 5.818v9.309zM28.16 17.641v-2.816h-5.818c-0.778 0-1.408 0.63-1.408 1.408s0.63 1.408 1.408 1.408h5.818z"></path>
</symbol>
<symbol id="icon-Pluse" viewBox="0 0 32 32">
<path fill="#fff" style="fill: var(--color1, #fff)" d="M15.253 2.667h1.493c6.951 0 12.587 5.635 12.587 12.587v1.493c0 6.951-5.635 12.587-12.587 12.587h-1.493c-6.951 0-12.587-5.635-12.587-12.587v-1.493c0-6.951 5.635-12.587 12.587-12.587zM17 17h4.333c0.552 0 1-0.448 1-1s-0.448-1-1-1h-4.333v-4.333c0-0.552-0.448-1-1-1s-1 0.448-1 1v4.333h-4.333c-0.552 0-1 0.448-1 1s0.448 1 1 1h4.333v4.333c0 0.552 0.448 1 1 1s1-0.448 1-1v-4.333z"></path>
</symbol>
<symbol id="icon-search" viewBox="0 0 32 32">
<path fill="#a2acb0" style="fill: var(--color1, #a2acb0)" d="M5.416 10.226c1.902-4.566 6.357-7.546 11.304-7.559 5.331-0.028 10.071 3.387 11.733 8.452s-0.135 10.624-4.446 13.76c-4.312 3.135-10.154 3.131-14.46-0.012l-3.84 3.84c-0.39 0.39-1.023 0.39-1.413 0s-0.39-1.023 0-1.413l3.72-3.72c-3.475-3.52-4.498-8.782-2.597-13.348zM7.199 18.893c1.597 3.848 5.355 6.353 9.521 6.348v-0.053c5.654-0.007 10.243-4.573 10.28-10.227 0.005-4.166-2.501-7.924-6.348-9.521s-8.278-0.717-11.224 2.229c-2.946 2.946-3.825 7.376-2.229 11.224z"></path>
</symbol>
<symbol id="icon-hide" viewBox="0 0 38 32">
<path fill="#007aff" style="fill: var(--color1, #007aff)" d="M8.838 26.813c-3.5-1.861-6.389-4.717-8.287-8.188-0.734-1.343-0.734-2.966 0-4.308 3.437-6.285 10.12-10.552 17.802-10.552 3.873 0 7.491 1.084 10.568 2.965l-5.18 5.18c-1.295-1.528-3.228-2.498-5.388-2.498-3.899 0-7.059 3.16-7.059 7.059 0 2.16 0.97 4.093 2.498 5.388l-4.954 4.954zM11.613 28.031c2.109 0.742 4.377 1.146 6.74 1.146 7.682 0 14.365-4.267 17.802-10.552 0.734-1.343 0.734-2.966 0-4.308-1.244-2.275-2.914-4.286-4.903-5.926l-6.117 6.117c0.18 0.623 0.276 1.281 0.276 1.962 0 3.899-3.16 7.059-7.059 7.059-0.681 0-1.339-0.096-1.962-0.276l-4.778 4.778zM18.353 16.471l-2.985 3.005c-0.772-0.767-1.251-1.83-1.251-3.005 0-2.339 1.896-4.235 4.235-4.235 0.965 0 1.854 0.322 2.566 0.866l-2.566 3.37z"></path>
<path fill="none" stroke="#007aff" style="stroke: var(--color1, #007aff)" stroke-linejoin="round" stroke-linecap="round" stroke-miterlimit="4" stroke-width="2.8235" d="M32 1.882l-28.235 28.235"></path>
</symbol>
<symbol id="icon-image" viewBox="0 0 32 32">
<path fill="#007aff" style="fill: var(--color1, #007aff)" d="M10.827 13.44c1.473 0 2.667-1.194 2.667-2.667s-1.194-2.667-2.667-2.667c-1.473 0-2.667 1.194-2.667 2.667s1.194 2.667 2.667 2.667z"></path>
<path fill="#007aff" style="fill: var(--color1, #007aff)" d="M18.987 2.667h-5.653c-5.891 0-10.667 4.776-10.667 10.667v5.653c0 5.891 4.776 10.667 10.667 10.667h5.653c5.891 0 10.667-4.776 10.667-10.667v-5.653c0-2.829-1.124-5.542-3.124-7.542s-4.714-3.124-7.543-3.124zM13.333 4.667h5.653c4.328 0.007 7.987 3.205 8.573 7.493h-2.067c-5.564 0.005-10.709 2.958-13.52 7.76-1.755-1.394-3.932-2.151-6.173-2.147h-1.133v-4.44c0.007-4.783 3.883-8.659 8.667-8.667zM5.8 19.773h-1.093c0.29 3.144 2.267 5.882 5.16 7.147 0.096-1.78 0.497-3.53 1.187-5.173-1.455-1.271-3.321-1.971-5.253-1.973zM18.987 27.653h-5.653c-0.501-0.002-1.001-0.051-1.493-0.147 0.166-7.425 6.227-13.361 13.653-13.373h2.16v4.853c-0.007 4.783-3.883 8.659-8.667 8.667z"></path>
</symbol>
<symbol id="icon-grid-list" viewBox="0 0 32 32">
<path fill="#007aff" style="fill: var(--color1, #007aff)" d="M2.16 7c0-1.657 1.343-3 3-3h4.667c1.657 0 3 1.343 3 3v4.667c0 1.657-1.343 3-3 3h-4.667c-1.657 0-3-1.343-3-3v-4.667z"></path>
<path fill="#007aff" style="fill: var(--color1, #007aff)" d="M2.16 20.333c0-1.657 1.343-3 3-3h4.667c1.657 0 3 1.343 3 3v4.667c0 1.657-1.343 3-3 3h-4.667c-1.657 0-3-1.343-3-3v-4.667z"></path>
<path fill="#007aff" style="fill: var(--color1, #007aff)" d="M18.16 9h6.667c0.552 0 1-0.448 1-1s-0.448-1-1-1h-6.667c-0.552 0-1 0.448-1 1s0.448 1 1 1z"></path>
<path fill="#007aff" style="fill: var(--color1, #007aff)" d="M18.16 13h10.667c0.552 0 1-0.448 1-1s-0.448-1-1-1h-10.667c-0.552 0-1 0.448-1 1s0.448 1 1 1z"></path>
<path fill="#007aff" style="fill: var(--color1, #007aff)" d="M18.16 22.333h6.667c0.552 0 1-0.448 1-1s-0.448-1-1-1h-6.667c-0.552 0-1 0.448-1 1s0.448 1 1 1z"></path>
<path fill="#007aff" style="fill: var(--color1, #007aff)" d="M28.827 24.333h-10.667c-0.552 0-1 0.448-1 1s0.448 1 1 1h10.667c0.552 0 1-0.448 1-1s-0.448-1-1-1z"></path>
</symbol>
<symbol id="icon-grid" viewBox="0 0 32 32">
<path fill="#007aff" style="fill: var(--color1, #007aff)" d="M7 4h4.12c0.798 0 1.563 0.318 2.126 0.883s0.878 1.332 0.874 2.13v4.107c0 1.657-1.343 3-3 3h-4.12c-1.657 0-3-1.343-3-3v-4.107c-0.004-0.798 0.311-1.564 0.874-2.13s1.328-0.883 2.126-0.883zM11.12 12.107c0.549-0.007 0.993-0.451 1-1v-4.093c0-0.552-0.448-1-1-1h-4.12c-0.552 0-1 0.448-1 1v4.093c0.007 0.549 0.451 0.993 1 1h4.12z"></path>
<path fill="#007aff" style="fill: var(--color1, #007aff)" d="M20.88 4h4.12c0.798 0 1.563 0.318 2.126 0.883s0.877 1.332 0.874 2.13v4.107c0 1.657-1.343 3-3 3h-4.12c-1.657 0-3-1.343-3-3v-4.12c0-1.657 1.343-3 3-3zM25 12.107c0.549-0.007 0.993-0.451 1-1v-4.093c0-0.552-0.448-1-1-1h-4.12c-0.552 0-1 0.448-1 1v4.093c0.007 0.549 0.451 0.993 1 1h4.12z"></path>
<path fill="#007aff" style="fill: var(--color1, #007aff)" d="M7 17.88h4.12c1.657 0 3 1.343 3 3v4.12c0 1.657-1.343 3-3 3h-4.12c-0.798 0-1.563-0.318-2.126-0.883s-0.877-1.332-0.874-2.13v-4.107c0-1.657 1.343-3 3-3zM11.12 25.987c0.552 0 1-0.448 1-1v-4.107c-0.007-0.549-0.451-0.993-1-1h-4.12c-0.549 0.007-0.993 0.451-1 1v4.107c0 0.552 0.448 1 1 1h4.12z"></path>
<path fill="#007aff" style="fill: var(--color1, #007aff)" d="M20.88 17.88h4.12c1.657 0 3 1.343 3 3v4.107c0.004 0.798-0.311 1.564-0.874 2.13s-1.328 0.883-2.126 0.883h-4.12c-0.798 0-1.563-0.318-2.126-0.883s-0.877-1.332-0.874-2.13v-4.107c0-1.657 1.343-3 3-3zM25 25.987c0.552 0 1-0.448 1-1v-4.107c-0.007-0.549-0.451-0.993-1-1h-4.12c-0.549 0.007-0.993 0.451-1 1v4.107c0 0.552 0.448 1 1 1h4.12z"></path>
</symbol>
<symbol id="icon-tg" viewBox="0 0 34 32">
<path fill="#007aff" style="fill: var(--color1, #007aff)" d="M33.787 1.593c-0.554-0.508-1.342-0.677-2.057-0.442l-30.301 9.989c-0.826 0.272-1.386 1.009-1.427 1.878s0.448 1.655 1.244 2.004l7.494 3.279c0.037 0.17 2.188 10.147 2.261 10.486 0.094 0.436 0.315 0.824 0.783 0.943 0.474 0.121 0.809-0.138 1.162-0.403 0.197-0.147 5.561-4.164 5.561-4.164l6.501 5.32c0.379 0.31 0.841 0.472 1.313 0.472 0.225-0 0.451-0.037 0.672-0.111 0.684-0.232 1.192-0.791 1.357-1.494l6.055-25.745c0.172-0.732-0.065-1.502-0.62-2.010zM13.431 20.179c-0.004 0.009-0.007 0.019-0.011 0.030l-1.254 4.38-1.399-6.488 9.619-5.345-6.726 7.032c-0.106 0.111-0.184 0.245-0.231 0.391zM13.829 26.137l1.114-3.892 1.951 1.597-3.065 2.295zM32.436 3.14l-6.055 25.745c-0.003 0.013-0.007 0.030-0.037 0.041s-0.044-0.001-0.054-0.010l-7.114-5.821c-0-0-0-0-0.001-0l-3.296-2.697 10.589-11.072c0.346-0.362 0.375-0.922 0.070-1.318s-0.855-0.509-1.293-0.266l-15.679 8.711-7.509-3.285c-0.023-0.010-0.035-0.015-0.034-0.054s0.015-0.043 0.039-0.051l30.301-9.989c0.015-0.005 0.031-0.010 0.056 0.012s0.020 0.039 0.017 0.054z"></path>
</symbol>
<symbol id="icon-tiktok" viewBox="0 0 32 32">
<path fill="none" stroke="#007aff" style="stroke: var(--color1, #007aff)" stroke-linejoin="round" stroke-linecap="round" stroke-miterlimit="10" stroke-width="2.2857" d="M29.054 7.967c-3.882 0-7.029-3.147-7.029-7.029h-5.021v20.585c0 2.496-2.023 4.519-4.519 4.519s-4.519-2.023-4.519-4.519c0-2.496 2.023-4.519 4.519-4.519v-5.021c-5.268 0-9.54 4.271-9.54 9.54s4.271 9.54 9.54 9.54c5.269 0 9.54-4.271 9.54-9.54v-10.798c1.979 1.423 4.406 2.262 7.029 2.262v-5.021z"></path>
</symbol>
<symbol id="icon-youTube" viewBox="0 0 34 32">
<path fill="#007aff" style="fill: var(--color1, #007aff)" d="M12.826 11.334c0-0.82 0.897-1.327 1.598-0.908l7.827 4.674 0.121 0.084c0.524 0.42 0.525 1.231-0.001 1.65l-0.122 0.083-7.825 4.661c-0.699 0.414-1.598-0.085-1.598-0.91v-9.333zM14.94 18.808l4.704-2.804-4.704-2.81v5.614z"></path>
<path fill="#007aff" style="fill: var(--color1, #007aff)" d="M7.788 4.143c6.094-0.756 14.080-0.703 19.902 0.162l0.233 0.040c2.396 0.456 4.262 2.381 4.68 4.854l0.141 0.876c0.609 4.063 0.609 7.787 0 11.85l-0.141 0.877c-0.42 2.476-2.285 4.399-4.678 4.855l-0.233 0.039c-3.101 0.462-6.817 0.692-10.534 0.692-3.258 0-6.518-0.176-9.367-0.53l-1.194-0.163c-2.43-0.36-4.359-2.218-4.868-4.657l-0.045-0.238c-0.796-4.702-0.796-8.897 0-13.6l0.045-0.238c0.51-2.438 2.439-4.297 4.868-4.657l1.192-0.162zM17.142 5.725c-3.159 0-6.319 0.172-9.078 0.513l-1.156 0.156c-1.5 0.224-2.703 1.351-3.078 2.852l-0.064 0.305c-0.764 4.522-0.764 8.378 0 12.897l0.064 0.305c0.374 1.501 1.579 2.628 3.077 2.85l1.157 0.157c5.919 0.734 13.673 0.682 19.316-0.156l0.296-0.056c1.455-0.34 2.581-1.551 2.844-3.099l0.134-0.84c0.585-3.887 0.585-7.329 0-11.218l-0.134-0.84c-0.261-1.548-1.388-2.758-2.845-3.099l-0.296-0.057c-3.013-0.446-6.624-0.67-10.237-0.67z"></path>
</symbol>
<symbol id="icon-instagram" viewBox="0 0 32 32">
<path fill="#007aff" style="fill: var(--color1, #007aff)" d="M24 0h-16c-4.399 0-8 3.6-8 8v16c0 4.398 3.6 8 8 8h16c4.399 0 8-3.602 8-8v-16c0-4.399-3.6-8-8-8zM29.333 24c0 2.94-2.392 5.333-5.333 5.333h-16c-2.94 0-5.333-2.393-5.333-5.333v-16c0-2.941 2.393-5.333 5.333-5.333h16c2.942 0 5.333 2.392 5.333 5.333v16z"></path>
<path fill="#007aff" style="fill: var(--color1, #007aff)" d="M24.668 9.332c1.105 0 2-0.895 2-2s-0.895-2-2-2c-1.104 0-2 0.895-2 2s0.895 2 2 2z"></path>
<path fill="#007aff" style="fill: var(--color1, #007aff)" d="M16 8c-4.419 0-8 3.581-8 8 0 4.417 3.581 8.001 8 8.001 4.418 0 8-3.583 8-8.001 0-4.419-3.582-8-8-8zM16 21.334c-2.945 0-5.333-2.388-5.333-5.334s2.388-5.333 5.333-5.333c2.945 0 5.333 2.387 5.333 5.333s-2.388 5.334-5.333 5.334z"></path>
</symbol>
</defs>
</svg>
