<svg width="53" height="44" viewBox="0 0 53 44" fill="none" xmlns="http://www.w3.org/2000/svg">
<ellipse cx="26.4998" cy="22" rx="22.0833" ry="22" fill="#4378FF" fill-opacity="0.1"/>
<path d="M41.6094 31.3871C41.1077 31.4846 31.3849 33.2389 26.4999 26.8647C22.6163 31.8896 15.7322 32.0473 11.4661 31.4066C-0.945254 27.9661 0.0109233 14.8864 0.0203904 14.7597C0.0346215 14.5659 0.105573 14.3812 0.223883 14.2298C0.342194 14.0784 0.502303 13.9675 0.683088 13.9117C0.863013 13.8554 1.05509 13.8549 1.23527 13.9104C1.41546 13.9659 1.57574 14.0748 1.69607 14.2236C1.72447 14.2626 4.81075 18.1125 8.7964 18.2586C11.0128 18.3558 13.1751 17.208 15.1204 15.0523C17.4764 13.124 22.9658 11.6561 26.4999 16.2607C27.7035 14.6821 29.4285 13.6137 31.3471 13.2588C33.6658 12.9939 35.9967 13.6338 37.8794 15.0521C39.825 17.2077 41.9872 18.356 44.2034 18.2587C48.1891 18.1125 51.2753 14.2626 51.3037 14.2237C51.4247 14.0769 51.585 13.9699 51.7646 13.9162C51.9442 13.8624 52.1351 13.8643 52.3137 13.9214C52.4923 13.9785 52.6506 14.0885 52.769 14.2375C52.8874 14.3866 52.9605 14.5682 52.9794 14.7597C52.9889 14.8864 53.9451 27.9661 41.6094 31.3871Z" fill="#007AFF"/>
</svg>
